{"glyphs":{"0":{"ha":694,"x_min":54,"x_max":639,"o":"m 318 924 q 524 856 436 936 q 588 761 561 819 q 639 444 639 646 q 579 115 639 231 q 465 -1 540 35 q 293 -25 381 -43 q 171 38 225 -12 q 114 115 139 67 q 54 444 54 233 q 85 706 54 604 q 133 813 104 765 q 308 922 197 906 q 318 924 313 924 m 365 858 q 308 854 335 863 q 224 772 247 833 q 218 751 221 763 q 204 461 204 690 q 221 136 204 192 q 249 85 229 107 q 347 35 288 35 q 444 85 406 35 q 472 136 464 107 q 489 461 489 192 q 475 751 489 690 q 400 847 461 818 q 365 858 383 856 z "},"1":{"ha":694,"x_min":108,"x_max":597,"o":"m 381 919 l 385 925 l 401 925 q 421 921 417 925 l 426 917 l 426 503 l 426 89 l 431 86 q 440 82 432 85 q 551 78 457 78 l 597 78 l 597 39 l 597 0 l 581 0 l 461 3 q 253 3 357 4 q 132 0 131 0 l 115 0 l 115 39 l 115 78 l 161 78 q 275 82 258 78 q 285 86 283 85 l 289 89 l 289 438 q 288 786 289 786 q 126 758 215 758 l 108 758 l 108 797 l 108 836 l 126 836 q 335 886 249 836 q 381 919 369 908 z "},"2":{"ha":694,"x_min":69,"x_max":625,"o":"m 297 924 q 378 921 336 928 q 538 846 474 908 q 596 767 574 813 q 624 650 619 714 q 579 497 625 569 q 432 349 538 436 q 292 219 382 306 l 211 143 l 306 142 q 522 149 508 142 q 540 197 531 153 l 554 275 q 589 276 554 276 l 624 276 l 624 272 q 604 139 622 269 q 585 4 586 8 l 585 0 l 326 0 l 69 0 l 69 33 q 72 72 69 68 l 190 206 q 375 418 342 375 q 449 551 428 492 q 435 756 485 663 q 406 796 422 778 q 292 847 360 843 q 196 810 236 850 l 171 778 q 182 775 171 775 q 224 751 208 767 q 240 731 233 744 q 250 682 250 707 q 182 600 246 615 q 171 597 176 599 q 149 597 160 596 q 74 657 90 606 q 71 692 71 668 q 74 729 71 718 q 121 831 86 785 q 169 875 139 853 q 240 911 200 897 q 297 924 265 918 z "},"3":{"ha":694,"x_min":60,"x_max":654,"o":"m 301 924 q 382 922 331 926 q 571 810 514 901 q 596 746 589 779 q 593 678 601 715 q 522 547 578 601 q 438 489 483 508 q 425 482 426 482 l 446 475 q 567 403 515 451 q 626 301 610 358 q 593 106 654 203 q 560 64 578 83 q 481 6 522 26 q 375 -28 433 -18 q 290 -29 343 -33 q 282 -28 285 -28 q 82 93 139 -4 q 79 99 81 96 q 60 183 60 138 q 63 217 60 206 q 153 279 85 278 q 244 217 222 279 q 247 185 247 206 q 244 154 247 164 q 189 96 231 111 l 181 93 l 183 90 q 219 68 201 76 q 336 43 275 39 q 347 44 343 43 q 438 118 410 54 q 443 132 440 125 q 456 247 456 167 q 440 368 456 329 q 376 440 422 417 q 301 450 357 449 l 293 450 l 238 451 l 233 454 q 231 482 231 458 q 233 510 231 507 q 239 514 236 514 q 279 518 240 515 q 360 538 336 522 q 428 654 410 571 q 419 806 447 754 q 381 844 408 829 q 329 854 360 854 q 210 811 260 857 l 201 804 l 210 801 q 271 731 263 788 q 272 722 272 726 q 263 674 272 697 q 226 639 251 653 q 183 629 203 629 q 142 639 165 629 q 106 674 117 653 q 96 726 96 694 q 200 889 101 832 q 211 896 206 893 q 301 924 254 918 z "},"4":{"ha":694,"x_min":39,"x_max":654,"o":"m 454 938 q 492 940 458 940 l 525 940 l 529 936 l 533 932 l 533 618 l 533 306 l 594 306 l 654 306 l 654 267 l 654 228 l 594 228 l 533 228 l 533 158 q 536 86 533 89 l 544 82 q 622 78 557 78 l 654 78 l 654 39 l 654 0 l 642 0 q 546 3 643 0 q 374 3 463 4 l 271 0 l 257 0 l 257 39 l 257 78 l 310 78 q 390 88 386 79 q 392 158 392 89 l 392 228 l 215 228 l 39 228 l 39 267 l 39 306 l 244 621 q 454 938 449 935 m 400 306 l 400 521 l 400 735 l 260 521 l 119 307 l 260 306 l 400 306 z "},"5":{"ha":694,"x_min":67,"x_max":626,"o":"m 129 922 q 150 919 135 926 q 249 890 197 900 q 506 907 379 865 q 540 919 515 910 q 565 921 558 928 l 569 917 l 569 893 l 569 868 l 561 858 q 486 796 531 825 q 301 736 401 743 q 206 742 239 733 l 200 743 l 200 633 l 200 525 l 208 532 q 276 571 240 558 q 467 556 371 603 q 617 349 585 494 q 621 326 619 338 q 621 233 626 285 q 536 64 601 132 q 451 3 500 28 q 236 -18 338 -53 q 86 124 128 17 q 72 171 76 146 q 71 232 67 211 q 93 272 78 257 q 185 293 131 310 q 232 253 218 282 q 240 213 240 235 q 232 171 240 189 q 179 129 218 140 q 165 126 168 126 q 169 115 163 126 q 233 61 193 82 q 311 43 267 43 q 429 99 388 43 q 463 199 457 135 q 464 353 467 236 q 463 376 464 369 q 442 463 457 438 q 331 517 404 525 q 196 422 240 506 q 176 408 188 410 q 158 408 171 408 q 125 417 128 408 q 122 667 122 422 q 124 917 122 914 q 129 922 126 922 z "},"6":{"ha":694,"x_min":54,"x_max":638,"o":"m 393 924 q 464 922 422 926 q 585 831 554 903 q 597 733 610 776 q 519 674 582 676 q 479 683 497 674 q 438 756 436 703 q 447 794 438 776 q 492 831 463 824 l 497 833 l 489 839 q 424 854 461 856 q 367 846 392 854 q 269 767 307 825 q 219 554 225 703 q 218 522 219 536 q 226 532 219 522 q 274 578 247 563 q 368 610 318 608 q 507 568 446 613 q 563 513 536 547 q 632 346 622 435 q 633 250 638 311 q 632 240 632 244 q 532 44 618 128 q 339 -31 451 -35 q 185 33 253 -26 q 121 121 147 69 q 61 357 71 214 q 64 529 54 453 q 218 842 90 729 q 258 872 238 858 q 393 924 319 915 m 379 543 q 339 543 356 546 q 221 346 236 528 q 225 167 215 269 q 226 158 226 163 q 263 81 231 117 q 319 46 288 56 q 382 46 343 40 q 451 92 426 57 q 475 263 475 126 q 475 321 475 288 q 468 454 474 417 q 454 494 467 474 q 379 543 428 535 z "},"7":{"ha":694,"x_min":76,"x_max":674,"o":"m 100 782 l 121 939 l 156 939 l 190 939 l 190 933 q 243 901 194 908 q 485 894 275 896 l 674 894 l 674 860 l 674 826 l 582 704 l 485 571 q 396 269 410 461 q 389 110 390 218 l 388 32 l 385 22 q 364 -8 376 3 q 279 -25 328 -43 q 251 -8 263 -19 q 231 22 239 3 q 226 51 228 29 q 232 140 226 101 q 403 575 256 360 l 532 751 q 519 753 533 753 q 383 753 503 753 q 186 747 213 751 q 169 729 175 747 q 146 624 160 708 l 146 618 l 111 618 l 76 618 l 76 621 q 100 782 76 619 z "},"8":{"ha":694,"x_min":54,"x_max":644,"o":"m 324 924 l 392 922 q 569 808 515 900 q 578 793 574 800 q 594 744 590 764 q 594 672 600 713 q 525 554 581 608 q 471 511 501 531 q 461 504 463 506 l 488 486 q 525 461 515 468 q 574 414 554 439 q 633 217 644 328 q 511 19 619 92 q 418 -22 469 -8 q 194 7 301 -50 q 171 21 182 14 q 63 178 82 79 q 63 264 54 222 q 115 374 75 322 q 171 428 140 406 q 221 461 201 451 q 226 465 225 464 l 214 475 q 104 624 128 528 q 138 817 76 724 q 201 881 167 857 q 285 917 243 907 q 324 924 299 922 m 371 854 q 232 815 290 865 q 204 782 214 800 q 226 660 169 717 q 311 600 238 647 l 326 590 q 400 546 397 543 q 444 582 413 550 q 499 675 486 624 q 497 743 506 706 q 458 810 486 782 q 371 854 422 846 m 389 363 q 301 418 297 421 l 290 425 l 276 415 q 163 233 169 344 q 163 211 163 222 q 218 94 167 142 q 311 46 254 58 q 385 46 344 40 q 515 135 479 65 q 524 156 521 144 q 488 293 547 233 q 389 363 475 306 z "},"9":{"ha":694,"x_min":56,"x_max":638,"o":"m 319 924 q 397 921 363 926 q 514 858 467 906 q 574 778 547 826 q 632 549 621 682 q 633 399 638 482 q 632 386 632 390 q 597 229 624 306 q 550 135 578 179 q 326 -28 461 -7 q 258 -29 292 -33 q 129 33 171 -18 q 93 139 93 78 q 142 215 93 196 q 153 218 147 217 q 196 218 175 224 q 246 181 233 208 q 240 92 271 132 q 214 69 229 76 q 204 64 206 64 q 229 51 204 60 q 336 51 285 33 q 443 153 407 75 q 451 175 447 164 q 474 339 469 229 q 475 374 474 358 q 467 364 474 374 q 424 321 450 340 q 353 289 390 297 q 276 289 325 283 q 158 351 210 303 q 92 446 115 397 q 61 544 69 486 q 60 651 56 590 q 61 660 61 657 q 146 832 75 756 q 319 924 221 914 m 385 851 q 356 856 378 853 q 276 836 304 856 q 233 788 249 818 q 218 574 217 750 q 228 421 219 454 q 256 382 238 397 q 338 353 285 353 q 378 358 363 353 q 467 506 447 386 q 468 517 467 511 q 474 631 474 549 q 463 768 472 744 q 385 851 442 829 z "}," ":{"ha":91019,"x_min":0,"x_max":0,"o":""},"!":{"ha":386,"x_min":101,"x_max":283,"o":"m 174 993 q 222 990 196 999 q 282 928 271 974 q 283 913 283 921 l 226 296 q 193 286 214 286 q 158 296 163 286 l 101 913 q 110 946 101 929 q 174 993 126 982 m 172 179 q 257 156 221 190 q 283 92 283 126 q 274 50 283 69 q 192 0 249 3 q 113 47 139 0 q 101 92 101 68 q 111 132 101 113 q 172 179 129 171 z "},"\"":{"ha":694,"x_min":46,"x_max":549,"o":"m 117 963 q 178 954 147 969 q 201 936 188 950 q 247 810 243 894 q 167 564 251 675 q 163 560 164 563 q 117 513 125 515 q 90 529 108 511 q 72 556 69 550 q 89 576 72 557 q 182 781 172 661 q 179 792 182 792 q 138 783 160 783 q 106 788 117 783 q 67 813 83 793 q 46 874 46 838 q 67 933 46 908 q 117 963 82 953 m 414 963 q 475 954 444 969 q 499 936 485 950 q 544 810 540 894 q 464 564 549 675 q 460 560 461 563 q 414 513 422 515 q 388 529 406 511 q 369 556 367 550 q 386 576 369 557 q 479 781 469 661 q 476 792 479 792 q 435 783 457 783 q 403 788 414 783 q 364 813 381 793 q 343 874 343 838 q 364 933 343 908 q 414 963 379 953 z "},"#":{"ha":1157,"x_min":78,"x_max":1079,"o":"m 565 961 q 578 964 574 964 q 606 939 599 964 q 550 725 606 933 q 493 513 493 519 l 492 510 l 622 510 l 754 510 l 813 728 q 875 951 869 943 q 911 960 890 974 q 919 951 915 957 q 919 915 926 943 q 869 725 914 892 q 813 513 813 519 l 811 510 l 935 510 l 1058 510 l 1064 507 q 1075 497 1068 504 q 1079 482 1079 489 q 1075 467 1079 475 q 1065 458 1068 460 q 926 454 1057 454 l 794 454 l 767 349 q 738 242 738 243 q 899 240 738 240 q 1065 236 1057 240 q 1075 228 1068 235 q 1079 213 1079 219 q 1075 197 1079 206 q 1064 188 1068 190 l 1058 185 l 890 185 l 721 185 l 663 -33 q 600 -257 606 -249 q 564 -265 585 -279 q 556 -257 560 -262 q 556 -222 549 -249 q 606 -29 561 -197 q 663 182 663 174 l 664 185 l 533 185 l 401 185 l 343 -33 q 281 -257 286 -249 q 244 -265 265 -279 q 236 -257 240 -262 q 236 -222 229 -249 q 286 -29 242 -197 q 343 182 343 174 l 344 185 l 221 185 l 97 185 l 92 188 q 82 197 85 192 q 78 213 78 203 q 92 238 78 229 l 100 240 l 231 240 l 361 240 l 389 346 q 418 453 418 451 q 258 454 418 454 l 100 454 l 92 457 q 78 482 78 465 q 82 497 78 492 q 92 507 85 503 l 97 510 l 265 510 l 435 510 l 493 728 q 556 951 550 943 q 565 961 557 956 m 738 453 q 607 454 738 454 l 475 454 l 447 349 q 418 242 418 243 q 549 240 418 240 l 681 240 l 708 346 q 738 453 738 451 z "},"$":{"ha":694,"x_min":53,"x_max":619,"o":"m 308 1010 l 308 1042 l 347 1042 l 386 1042 l 386 1010 l 388 978 l 400 975 q 536 915 481 964 q 617 724 617 846 q 565 644 617 663 q 536 640 551 640 q 496 650 514 640 q 454 724 453 671 q 496 792 456 772 q 526 801 513 801 q 531 803 531 801 l 525 814 q 403 896 488 878 q 388 899 389 899 q 386 736 386 899 l 386 572 l 400 569 q 496 526 451 557 q 568 449 539 497 q 613 331 600 396 q 614 233 619 288 q 585 142 606 183 q 424 -3 533 33 q 406 -8 414 -6 q 388 -12 389 -11 q 386 -44 386 -12 l 386 -78 l 347 -78 l 308 -78 l 308 -46 l 308 -14 l 296 -11 q 268 -6 285 -11 q 122 94 171 18 q 76 258 76 163 q 99 319 76 299 q 157 343 122 343 q 217 319 193 343 q 235 236 250 288 q 215 204 229 217 q 175 183 200 189 l 163 181 q 167 164 160 181 q 256 79 193 104 q 303 65 289 68 l 308 65 l 308 247 l 308 429 l 303 431 q 226 457 249 444 q 133 535 169 486 q 85 769 53 640 q 106 828 92 800 q 163 904 125 868 q 224 949 190 932 q 303 975 260 968 l 308 976 l 308 1010 m 308 744 q 307 897 308 897 l 271 883 q 192 797 213 854 q 217 649 163 715 q 264 610 236 625 q 303 593 288 596 l 308 593 l 308 744 m 397 407 q 386 410 388 410 l 386 239 q 388 68 386 68 q 419 81 399 68 q 507 200 490 121 q 508 274 514 235 q 492 321 503 301 q 397 407 461 385 z "},"%":{"ha":1157,"x_min":75,"x_max":1082,"o":"m 257 1039 q 332 1031 293 1047 q 378 999 356 1021 q 596 893 476 911 q 685 892 629 888 q 694 893 690 893 q 903 1017 824 914 q 924 1039 918 1036 q 958 1028 946 1049 q 963 1018 961 1024 q 965 1008 963 1011 q 968 1000 968 1003 q 924 942 968 986 q 669 568 911 929 l 575 428 q 236 -74 243 -69 q 208 -74 224 -82 q 197 -62 200 -71 q 196 -39 190 -50 q 496 410 199 -35 l 793 853 q 776 849 793 854 q 708 832 750 839 q 607 829 663 824 q 468 865 535 836 q 450 874 451 872 q 449 871 449 874 q 460 813 456 844 q 461 719 465 778 q 460 711 460 715 q 407 560 449 621 q 354 506 385 525 q 233 490 300 469 q 189 513 208 499 q 82 697 104 571 q 79 715 81 706 q 78 799 75 744 q 79 808 79 804 q 186 1010 99 946 q 257 1039 219 1032 m 294 975 q 236 956 263 982 q 199 829 203 922 q 197 743 197 796 q 210 613 199 646 q 243 563 221 581 q 325 565 282 529 q 390 714 376 606 q 392 801 396 749 q 390 810 390 807 q 319 963 376 922 q 294 975 307 972 m 874 479 q 971 458 926 490 q 1024 406 1000 440 q 1076 253 1065 343 q 1078 160 1082 218 q 1076 151 1076 156 q 1024 0 1065 61 q 971 -54 1001 -35 q 850 -69 917 -90 q 806 -47 825 -61 q 699 138 721 11 q 696 156 697 146 q 694 239 692 185 q 696 249 696 244 q 803 450 715 386 q 874 479 836 472 m 911 415 q 853 396 879 422 q 815 269 819 363 q 814 183 814 236 q 838 28 815 64 q 844 18 840 24 q 908 -11 874 -17 q 989 76 958 -3 q 993 90 990 83 q 1008 203 1008 140 q 1007 250 1008 242 q 936 403 993 363 q 911 415 924 413 z "},"&":{"ha":1081,"x_min":54,"x_max":1010,"o":"m 404 993 q 472 985 442 997 q 567 842 546 954 q 569 818 568 831 q 567 751 574 779 q 419 538 544 663 l 390 507 l 432 425 q 542 265 463 369 q 594 199 590 201 q 654 282 600 199 q 764 469 721 385 q 767 475 767 474 q 756 499 767 490 q 679 521 731 521 l 671 521 l 671 560 l 671 599 l 683 599 q 782 596 682 599 q 929 596 868 594 l 1000 599 l 1010 599 l 1010 560 l 1010 521 l 997 521 q 929 515 965 521 q 850 482 872 506 q 810 419 840 472 q 642 158 700 226 q 636 150 636 153 l 682 107 q 686 104 685 106 q 779 51 732 64 q 842 51 810 43 q 889 75 868 60 q 933 158 926 107 l 933 168 l 968 168 l 1003 168 l 1003 156 q 911 0 994 54 q 893 -11 903 -7 q 807 -31 857 -31 q 575 54 688 -31 q 557 67 556 67 q 543 57 557 71 q 378 -24 465 -7 q 224 -17 294 -40 q 165 10 199 -11 q 63 154 82 61 q 60 225 54 188 q 111 335 68 286 q 192 411 121 347 l 263 478 l 256 494 q 211 753 206 628 q 213 769 211 761 q 260 903 218 839 q 342 975 293 951 q 404 993 371 990 m 442 926 q 375 911 408 938 q 331 821 342 882 q 338 686 322 771 q 363 579 349 611 l 365 575 l 386 597 q 483 722 458 671 q 500 817 506 769 q 442 926 492 911 m 299 399 q 290 414 290 413 q 249 372 285 414 q 213 192 194 299 q 219 158 215 175 q 264 81 233 108 q 310 51 283 58 q 343 49 319 49 q 401 56 374 49 q 499 101 450 68 l 510 110 l 490 129 q 311 374 383 242 q 299 399 304 386 z "},"'":{"ha":386,"x_min":101,"x_max":307,"o":"m 172 963 q 233 954 203 969 q 257 936 243 950 q 303 810 299 894 q 222 564 307 675 q 218 560 219 563 q 172 513 181 515 q 144 529 164 511 q 128 557 124 550 q 146 578 129 558 q 238 781 228 661 q 235 792 238 792 q 193 783 215 783 q 161 788 172 783 q 122 813 139 793 q 101 874 101 838 q 122 933 101 908 q 172 963 138 953 z "},"(":{"ha":540,"x_min":119,"x_max":463,"o":"m 399 1036 l 406 1042 l 431 1042 l 454 1042 l 458 1038 q 463 1029 463 1033 q 451 1011 463 1024 q 376 917 411 969 q 269 654 303 803 q 249 164 215 426 q 269 42 256 99 q 451 -317 318 -174 q 463 -335 463 -329 q 458 -343 463 -339 l 454 -347 l 431 -347 l 406 -347 l 399 -342 q 344 -290 364 -311 q 125 264 150 -85 q 124 415 119 322 q 125 431 125 425 q 344 985 150 779 q 399 1036 364 1006 z "},")":{"ha":540,"x_min":76,"x_max":419,"o":"m 83 1040 q 110 1042 86 1042 l 133 1042 l 140 1036 q 194 985 175 1006 q 414 431 389 779 q 415 279 419 372 q 414 264 414 269 q 194 -290 389 -85 q 140 -342 175 -311 l 133 -347 l 110 -347 q 78 -339 81 -347 q 76 -332 76 -336 q 93 -311 78 -329 q 269 42 222 -169 q 290 531 324 268 q 269 654 283 597 q 93 1006 222 864 q 76 1026 78 1024 q 83 1040 76 1036 z "},"*":{"ha":694,"x_min":78,"x_max":615,"o":"m 332 1040 q 360 1040 346 1043 q 400 1001 393 1032 q 401 992 401 996 l 393 897 l 383 808 l 454 861 q 532 917 528 915 q 551 919 538 919 q 589 901 575 917 q 599 838 615 872 q 565 811 593 825 q 514 788 556 807 l 432 749 l 418 742 l 500 704 q 596 653 589 664 q 599 647 597 651 q 589 583 615 613 q 551 565 575 568 q 532 568 538 565 q 454 624 528 569 q 383 676 385 675 l 393 589 q 401 493 401 492 q 368 447 401 461 q 347 443 358 443 q 296 476 310 443 q 292 493 292 485 q 300 589 292 492 q 310 676 310 675 l 239 624 q 161 568 165 569 q 142 565 156 565 q 104 583 118 568 q 94 647 78 613 q 128 674 100 660 q 179 697 138 678 l 261 736 l 275 743 l 193 781 q 97 832 104 821 q 94 838 96 833 q 104 901 78 872 q 142 919 118 917 q 161 917 156 919 q 239 861 165 915 q 310 808 308 810 l 300 897 q 292 992 292 990 q 304 1024 292 1008 q 332 1040 317 1036 z "},"+":{"ha":1081,"x_min":78,"x_max":1003,"o":"m 528 807 q 565 794 547 818 l 568 789 l 568 582 l 568 375 l 775 375 l 982 375 l 988 372 q 999 363 992 369 q 1003 347 1003 354 q 999 332 1003 340 q 988 322 992 325 l 982 319 l 775 319 l 568 319 l 568 113 l 568 -94 l 565 -100 q 556 -110 561 -107 q 540 -114 550 -114 q 525 -110 531 -114 q 515 -100 519 -107 l 513 -94 l 513 113 l 513 319 l 306 319 l 97 319 l 92 322 q 82 332 85 328 q 78 347 78 338 q 82 363 78 357 q 92 372 85 367 l 97 375 l 306 375 l 513 375 l 513 583 l 514 792 l 518 797 l 528 807 z "},",":{"ha":386,"x_min":101,"x_max":301,"o":"m 172 181 q 254 156 219 190 q 296 64 283 126 q 294 -37 301 17 q 219 -218 279 -136 q 171 -269 193 -256 l 164 -269 q 132 -239 154 -267 q 128 -232 128 -235 q 144 -204 126 -224 q 217 -85 193 -154 q 233 -3 231 -40 q 231 8 233 8 q 193 1 217 1 q 161 6 172 1 q 122 31 139 11 q 101 92 101 56 q 122 151 101 126 q 172 181 138 171 z "},"-":{"ha":463,"x_min":15,"x_max":385,"o":"m 15 300 l 15 357 l 200 357 l 385 357 l 385 300 l 385 242 l 200 242 l 15 242 l 15 300 z "},".":{"ha":386,"x_min":93,"x_max":292,"o":"m 171 179 q 233 172 201 188 q 274 132 260 158 q 274 50 292 92 q 233 10 260 24 q 151 10 192 -8 q 111 50 125 24 q 111 132 93 92 q 171 179 128 168 z "},"/":{"ha":694,"x_min":78,"x_max":617,"o":"m 579 1040 q 590 1042 581 1042 q 617 1019 613 1040 q 617 1014 617 1017 q 374 339 617 1007 q 128 -333 133 -324 q 92 -344 117 -354 q 82 -335 83 -336 q 78 -321 78 -329 q 319 356 78 -311 q 565 1028 560 1018 q 579 1040 569 1035 z "},":":{"ha":386,"x_min":93,"x_max":292,"o":"m 171 596 q 233 589 201 604 q 274 549 260 575 q 274 467 292 508 q 233 426 260 440 q 151 426 192 408 q 111 467 125 440 q 111 549 93 508 q 171 596 128 585 m 171 179 q 233 172 201 188 q 274 132 260 158 q 274 50 292 92 q 233 10 260 24 q 151 10 192 -8 q 111 50 125 24 q 111 132 93 92 q 171 179 128 168 z "},";":{"ha":386,"x_min":93,"x_max":292,"o":"m 171 596 q 233 589 201 604 q 274 549 260 575 q 274 467 292 508 q 233 426 260 440 q 151 426 192 408 q 111 467 125 440 q 111 549 93 508 q 171 596 128 585 m 172 181 q 211 179 194 183 q 286 50 275 163 q 283 -36 292 8 q 222 -207 274 -125 q 182 -261 200 -242 q 163 -268 169 -272 q 131 -237 151 -262 q 128 -232 128 -233 q 136 -212 126 -225 q 165 -174 150 -197 q 219 -25 211 -103 q 221 4 222 4 q 186 0 211 0 q 122 31 146 3 q 101 92 101 56 q 122 151 101 126 q 172 181 138 171 z "},"<":{"ha":386,"x_min":101,"x_max":283,"o":"m 172 692 q 257 668 221 703 q 283 604 283 639 q 274 563 283 582 q 192 513 249 515 q 113 560 139 513 q 101 604 101 581 q 111 644 101 625 q 172 692 129 683 m 164 406 q 192 408 167 408 q 226 399 222 408 l 283 -218 q 235 -290 283 -265 q 222 -296 229 -293 q 193 -299 211 -299 q 164 -296 174 -299 q 103 -233 114 -279 q 101 -218 101 -226 l 158 399 q 164 406 160 404 z "},"=":{"ha":1081,"x_min":78,"x_max":1003,"o":"m 92 507 l 97 510 l 539 510 l 982 510 l 988 507 q 999 497 992 504 q 1003 482 1003 489 q 999 467 1003 475 q 989 458 992 460 l 983 456 l 542 454 l 100 454 l 92 457 q 78 482 78 465 q 82 497 78 492 q 92 507 85 503 m 92 238 l 100 240 l 542 240 l 983 240 l 989 236 q 999 228 992 235 q 1003 213 1003 219 q 999 197 1003 206 q 988 188 992 190 l 982 185 l 539 185 l 97 185 l 92 188 q 82 197 85 192 q 78 213 78 203 q 92 238 78 229 z "},">":{"ha":656,"x_min":74,"x_max":582,"o":"m 288 692 q 372 668 336 703 q 399 604 399 639 q 389 563 399 582 q 307 513 364 515 q 228 560 254 513 q 217 604 217 581 q 226 644 217 625 q 288 692 244 683 m 279 406 q 307 408 282 408 q 342 400 339 408 q 339 265 347 379 q 338 253 338 258 q 256 17 321 119 l 240 -8 q 228 -58 229 -32 q 231 -182 222 -124 q 246 -204 235 -196 q 308 -219 265 -219 q 456 -181 400 -219 q 468 -168 472 -171 q 458 -162 467 -167 q 415 -89 414 -142 q 426 -49 415 -68 q 496 -8 446 -10 q 518 -11 507 -8 q 578 -100 582 -28 q 571 -137 576 -118 q 547 -186 563 -161 q 365 -281 492 -261 q 254 -282 315 -287 q 131 -228 176 -269 q 79 -128 92 -190 q 81 -49 74 -89 q 136 50 94 14 q 193 110 181 94 q 267 267 253 185 q 274 353 272 299 q 275 401 274 400 q 279 406 275 406 z "},"?":{"ha":656,"x_min":76,"x_max":582,"o":"m 278 978 q 411 969 336 985 q 518 919 475 956 q 576 774 582 864 q 560 707 575 739 q 499 635 540 665 q 347 418 374 542 q 343 351 344 401 q 342 296 343 299 q 308 286 329 286 q 275 293 276 286 q 275 417 269 301 q 390 682 292 571 q 418 725 410 704 q 426 799 428 750 q 410 886 426 869 q 360 911 394 903 q 278 913 321 917 q 272 911 275 911 q 190 874 226 901 q 182 863 175 863 l 196 857 q 239 783 240 836 q 228 743 239 763 q 158 704 207 704 q 86 744 106 704 q 76 793 76 764 q 111 889 79 844 q 161 936 136 921 q 278 978 214 971 m 288 179 q 372 156 336 190 q 399 92 399 126 q 389 50 399 69 q 307 0 364 3 q 228 47 254 0 q 217 92 217 68 q 226 132 217 113 q 288 179 244 171 z "},"@":{"ha":1081,"x_min":74,"x_max":1007,"o":"m 501 978 q 736 932 622 989 q 947 718 874 864 q 1000 543 988 639 q 1001 422 1006 497 q 1000 411 1000 415 q 893 182 983 225 q 836 172 871 172 q 778 181 803 172 q 704 236 725 199 l 700 244 l 686 232 q 632 194 664 208 q 539 172 589 172 q 476 179 501 172 q 381 228 425 192 q 326 283 353 247 q 265 433 281 346 q 265 531 260 476 q 326 681 281 618 q 381 736 353 717 q 503 790 438 781 q 569 792 531 796 q 575 790 572 790 q 663 751 621 782 q 735 672 706 719 l 740 663 l 774 663 q 810 661 807 663 q 817 624 815 657 q 817 469 817 597 q 822 261 817 275 q 825 256 824 260 q 846 236 835 239 q 888 247 869 233 q 926 336 917 269 q 932 457 932 369 q 924 574 932 535 q 807 799 897 708 q 521 913 686 921 q 481 908 501 911 q 232 750 328 883 q 156 574 174 671 q 147 482 147 532 q 156 390 147 432 q 318 125 188 224 q 481 56 392 69 q 754 76 590 36 q 768 79 761 78 q 892 119 833 94 q 947 122 899 122 l 994 122 l 999 118 q 1000 101 1007 110 q 944 72 999 99 q 561 -15 767 -8 q 435 -3 496 -17 q 219 124 310 29 q 79 422 101 243 q 79 536 74 472 q 79 543 79 540 q 132 718 92 639 q 371 944 211 878 q 501 978 435 971 m 569 724 q 524 726 544 731 q 422 626 460 714 q 411 599 415 614 q 394 482 394 550 q 401 403 394 439 q 444 296 413 343 q 511 240 474 254 q 542 238 522 238 q 607 256 578 238 q 679 331 647 281 l 686 343 l 686 482 l 686 621 l 679 633 q 631 692 656 672 q 569 724 600 718 z "},"A":{"ha":1042,"x_min":44,"x_max":996,"o":"m 486 992 q 519 994 490 994 q 554 992 550 994 q 563 986 558 990 q 711 538 565 982 q 860 89 858 90 q 900 79 865 81 q 960 78 914 78 l 996 78 l 996 39 l 996 0 l 983 0 q 885 3 985 0 q 704 3 800 4 l 593 0 l 578 0 l 578 39 l 578 78 l 600 78 q 692 86 675 78 q 694 92 694 89 q 668 174 694 89 q 639 264 644 244 l 636 272 l 479 272 l 324 272 l 300 201 l 276 126 q 286 104 275 115 q 365 78 310 82 l 381 78 l 381 39 l 381 0 l 368 0 l 278 3 q 132 3 197 4 q 54 0 56 0 l 44 0 l 44 39 l 44 78 l 58 78 q 139 88 103 78 q 192 124 182 101 q 336 557 193 126 q 478 986 475 979 q 486 992 482 990 m 544 549 l 481 746 q 350 353 481 744 q 479 350 350 350 q 610 351 610 350 l 544 549 z "},"B":{"ha":983,"x_min":32,"x_max":908,"o":"m 32 910 l 32 949 l 314 949 q 615 944 597 947 q 750 896 690 932 q 857 767 833 844 q 865 708 865 740 q 863 671 865 683 q 829 601 853 635 q 669 500 776 532 q 657 496 657 499 q 715 482 669 496 q 840 407 793 456 q 903 294 889 358 q 901 218 908 256 q 778 50 881 113 q 651 4 728 17 l 633 1 l 332 0 l 32 0 l 32 39 l 32 78 l 71 78 q 174 88 168 78 l 174 861 q 71 871 168 871 l 32 871 l 32 910 m 589 867 l 579 869 l 467 871 q 332 867 340 871 q 325 833 326 863 q 325 693 325 810 l 325 526 l 431 526 q 549 529 539 526 q 675 624 635 544 q 686 649 682 636 q 696 708 696 678 q 661 815 696 771 q 589 867 635 854 m 607 457 q 460 461 596 460 l 325 461 l 325 275 q 328 86 325 89 q 372 79 332 79 q 461 79 360 79 q 604 83 589 79 q 611 86 606 85 q 719 193 690 114 q 728 225 725 208 q 707 369 743 300 q 700 381 704 375 q 607 457 664 442 z "},"C":{"ha":1003,"x_min":36,"x_max":925,"o":"m 522 978 q 593 978 558 981 q 789 883 708 967 q 801 872 800 874 l 844 925 q 890 978 883 971 q 906 979 892 979 q 921 975 917 979 l 925 971 l 925 774 l 925 578 l 921 574 l 917 569 l 886 569 q 850 575 853 569 q 844 600 849 578 q 717 863 821 785 q 638 897 679 889 q 571 900 615 903 q 319 758 403 885 q 257 550 269 685 q 256 415 251 506 q 257 399 257 404 q 303 218 267 286 q 513 58 367 93 q 532 54 522 56 q 750 103 661 31 q 856 324 844 183 q 856 333 856 328 q 860 357 856 354 l 864 361 l 890 361 l 917 361 l 921 357 q 925 342 925 353 q 900 211 925 276 q 861 133 888 175 q 744 21 813 60 q 525 -29 644 -40 q 226 110 350 -14 q 133 238 169 167 q 100 632 36 429 q 133 711 114 672 q 381 943 215 874 q 447 965 413 957 q 522 978 488 975 z "},"D":{"ha":1061,"x_min":31,"x_max":986,"o":"m 31 910 l 31 949 l 313 949 q 624 943 603 947 l 640 939 q 863 803 769 911 q 981 526 960 689 q 982 422 986 481 q 981 414 981 417 q 850 128 961 242 q 614 4 753 26 q 313 0 596 1 l 31 0 l 31 39 l 31 78 l 69 78 q 172 88 167 78 l 172 861 q 69 871 167 871 l 31 871 l 31 910 m 563 868 q 453 871 553 869 l 347 869 q 331 863 333 868 q 328 474 328 860 l 328 89 l 331 86 q 392 79 336 79 q 446 79 406 79 q 590 86 558 79 q 599 89 593 88 q 726 161 675 107 q 807 374 794 232 q 808 529 811 428 q 794 649 807 599 q 606 858 758 811 q 563 868 585 864 z "},"E":{"ha":946,"x_min":31,"x_max":906,"o":"m 31 906 l 31 944 l 429 944 l 829 944 l 829 939 q 849 771 831 935 q 868 603 867 607 l 868 597 l 833 597 l 799 597 l 799 603 q 794 633 797 607 q 749 790 781 744 q 704 833 733 815 q 628 860 669 854 q 467 867 588 867 q 335 858 342 867 q 332 692 332 856 l 332 529 l 400 529 q 478 532 476 532 q 554 578 536 542 q 571 663 569 604 l 571 692 l 606 692 l 640 692 l 640 490 l 640 289 l 606 289 l 571 289 l 571 318 q 554 403 569 376 q 478 449 536 439 q 400 451 476 449 l 332 451 l 332 271 q 335 86 332 89 q 382 79 340 79 q 468 79 400 78 q 607 81 588 79 q 750 138 703 93 q 831 357 804 188 l 836 389 l 836 393 l 871 393 l 906 393 l 906 389 q 876 197 904 388 q 847 4 849 7 l 847 0 l 439 0 l 31 0 l 31 39 l 31 78 l 69 78 q 172 88 167 78 l 172 857 q 69 867 167 867 l 31 867 l 31 906 z "},"F":{"ha":907,"x_min":31,"x_max":847,"o":"m 31 906 l 31 944 l 419 944 l 808 944 l 808 939 q 828 771 810 935 q 847 603 846 607 l 847 597 l 813 597 l 778 597 l 778 603 q 774 633 776 607 q 700 824 756 779 q 647 851 679 842 q 485 867 604 867 q 444 867 468 867 q 335 858 342 865 q 332 683 332 856 l 332 511 l 397 511 q 475 514 468 513 q 547 560 529 524 q 563 644 561 589 l 563 674 l 597 674 l 632 674 l 632 472 l 632 271 l 597 271 l 563 271 l 563 300 q 547 385 561 356 q 475 431 529 421 q 397 433 468 432 l 332 433 l 332 261 q 335 88 332 89 q 440 78 343 79 l 510 78 l 510 39 l 510 0 l 493 0 q 365 3 494 0 q 157 3 254 4 l 46 0 l 31 0 l 31 39 l 31 78 l 69 78 q 172 88 167 78 l 172 857 q 69 867 167 867 l 31 867 l 31 906 z "},"G":{"ha":1090,"x_min":36,"x_max":1021,"o":"m 522 978 q 593 978 558 981 q 789 883 708 967 q 801 872 800 874 l 844 925 q 890 978 883 971 q 906 979 892 979 q 921 975 917 979 l 925 971 l 925 774 l 925 578 l 921 574 l 917 569 l 886 569 q 850 575 853 569 q 844 600 849 578 q 711 867 821 789 q 636 899 676 890 q 556 899 607 904 q 357 806 433 882 q 267 628 289 738 q 256 475 256 571 q 267 322 256 378 q 406 104 297 175 q 589 47 483 51 q 744 107 696 43 q 763 139 757 122 l 765 150 l 767 219 l 767 290 l 764 293 q 753 297 761 294 q 639 301 736 301 l 593 301 l 593 340 l 593 379 l 610 379 l 736 376 q 922 376 846 375 l 1010 379 l 1021 379 l 1021 340 l 1021 301 l 983 301 q 929 293 936 300 l 925 290 l 925 149 l 925 8 l 921 4 q 896 7 914 -3 q 821 60 846 38 l 811 69 l 804 61 q 740 11 782 32 q 463 -19 619 -53 q 447 -17 454 -18 q 226 110 321 17 q 133 238 169 167 q 100 632 36 429 q 133 711 114 672 q 381 943 215 874 q 447 965 413 957 q 522 978 488 975 z "},"H":{"ha":1042,"x_min":31,"x_max":1010,"o":"m 31 910 l 31 949 l 46 949 l 157 946 q 349 946 253 944 l 460 949 l 475 949 l 475 910 l 475 871 l 436 871 q 333 861 339 871 q 332 696 332 860 l 332 532 l 521 532 l 708 532 l 708 696 q 707 861 708 860 q 604 871 701 871 l 565 871 l 565 910 l 565 949 l 581 949 l 692 946 q 883 946 788 944 l 994 949 l 1010 949 l 1010 910 l 1010 871 l 971 871 q 868 861 874 871 l 868 88 q 971 78 874 78 l 1010 78 l 1010 39 l 1010 0 l 994 0 l 883 3 q 692 3 788 4 l 581 0 l 565 0 l 565 39 l 565 78 l 604 78 q 707 88 701 78 q 708 272 708 89 l 708 454 l 521 454 l 332 454 l 332 272 q 333 88 332 89 q 436 78 339 78 l 475 78 l 475 39 l 475 0 l 460 0 l 349 3 q 157 3 253 4 l 46 0 l 31 0 l 31 39 l 31 78 l 69 78 q 172 88 167 78 l 172 861 q 69 871 167 871 l 31 871 l 31 910 z "},"I":{"ha":501,"x_min":22,"x_max":478,"o":"m 22 910 l 22 949 l 38 949 l 151 946 q 349 946 250 944 l 463 949 l 478 949 l 478 910 l 478 871 l 438 871 q 342 867 358 871 l 332 863 l 329 860 l 329 475 l 329 89 l 332 86 l 342 82 q 438 78 358 78 l 478 78 l 478 39 l 478 0 l 463 0 l 349 3 q 151 3 250 4 l 38 0 l 22 0 l 22 39 l 22 78 l 63 78 q 158 82 142 78 l 168 86 l 171 89 l 171 475 l 171 860 l 168 863 l 158 867 q 63 871 142 871 l 22 871 l 22 910 z "},"J":{"ha":714,"x_min":22,"x_max":646,"o":"m 200 910 l 200 949 l 217 949 q 349 946 215 949 q 542 946 463 944 l 633 949 l 646 949 l 646 910 l 646 871 l 617 871 q 540 860 542 871 q 539 514 539 858 l 538 172 l 535 160 q 397 -1 507 51 q 176 -18 290 -51 q 132 -1 153 -11 q 72 40 96 17 q 25 119 36 76 q 22 156 22 131 q 25 190 22 179 q 33 208 32 204 q 85 249 49 235 q 117 251 94 251 q 149 249 138 251 q 186 224 174 239 q 211 163 208 201 q 201 114 211 133 q 161 74 188 88 l 150 68 q 181 51 154 60 q 272 36 231 29 q 364 110 332 43 q 382 163 376 135 q 385 517 383 171 q 382 861 385 860 q 371 867 379 864 q 249 871 338 871 l 200 871 l 200 910 z "},"K":{"ha":1081,"x_min":31,"x_max":1022,"o":"m 31 910 l 31 949 l 46 949 l 157 946 q 349 946 253 944 l 460 949 l 475 949 l 475 910 l 475 871 l 436 871 q 333 861 339 871 q 332 651 332 860 l 333 444 l 521 632 q 713 824 710 818 q 713 849 719 838 q 669 871 704 865 l 660 871 l 660 910 l 660 949 l 675 949 l 781 946 q 929 946 872 944 l 994 949 l 1003 949 l 1003 910 l 1003 871 l 978 871 q 810 821 860 867 l 683 696 l 569 582 l 721 350 q 883 107 871 119 q 926 83 901 89 q 1001 78 960 78 l 1022 78 l 1022 39 l 1022 0 l 1010 0 l 925 3 q 753 3 853 4 l 639 0 l 624 0 l 624 39 l 624 78 l 642 78 q 669 81 664 81 q 693 96 689 88 q 693 121 700 107 q 576 303 692 128 l 464 476 l 397 411 l 332 347 l 332 218 q 333 88 332 89 q 436 78 339 78 l 475 78 l 475 39 l 475 0 l 460 0 l 349 3 q 157 3 253 4 l 46 0 l 31 0 l 31 39 l 31 78 l 69 78 q 172 88 167 78 l 172 861 q 69 871 167 871 l 31 871 l 31 910 z "},"L":{"ha":868,"x_min":31,"x_max":808,"o":"m 31 910 l 31 949 l 46 949 l 157 946 q 365 946 254 944 q 493 949 494 949 l 510 949 l 510 910 l 510 871 l 440 871 q 335 861 343 869 q 332 474 332 860 l 332 89 l 335 86 q 343 81 336 85 q 490 78 358 75 q 510 79 504 79 q 693 189 644 92 q 735 353 722 243 q 739 386 738 382 l 739 393 l 774 393 l 808 393 l 808 386 q 789 197 807 383 q 769 7 771 10 l 769 0 l 400 0 l 31 0 l 31 39 l 31 78 l 69 78 q 172 88 167 78 l 172 861 q 69 871 167 871 l 31 871 l 31 910 z "},"M":{"ha":1274,"x_min":33,"x_max":1239,"o":"m 33 910 l 33 949 l 190 949 q 353 944 347 949 l 360 938 q 499 564 363 935 l 636 194 l 774 564 q 914 938 910 936 q 919 944 915 940 q 1082 949 925 949 l 1239 949 l 1239 910 l 1239 871 l 1200 871 q 1097 861 1103 871 l 1097 88 q 1200 78 1103 78 l 1239 78 l 1239 39 l 1239 0 l 1224 0 l 1115 3 q 929 3 1022 4 l 821 0 l 806 0 l 806 39 l 806 78 l 844 78 q 947 88 942 78 q 949 475 949 89 l 949 858 l 792 436 q 633 11 635 13 q 597 1 615 1 q 563 10 568 1 q 407 426 557 15 q 253 843 253 839 q 251 838 251 844 q 250 485 250 818 l 251 122 l 254 115 q 367 78 274 82 l 393 78 l 393 39 l 393 0 l 381 0 l 290 3 q 136 3 214 4 l 46 0 l 33 0 l 33 39 l 33 78 l 60 78 q 172 115 153 82 l 176 122 l 176 490 q 175 861 176 860 q 72 871 169 871 l 33 871 l 33 910 z "},"N":{"ha":1042,"x_min":31,"x_max":1010,"o":"m 31 910 l 31 949 l 182 949 q 336 947 333 949 q 556 625 338 946 l 782 289 l 793 274 l 793 550 l 793 828 l 789 833 q 676 871 769 867 l 650 871 l 650 910 l 650 949 l 663 949 l 753 946 q 907 946 831 944 l 997 949 l 1010 949 l 1010 910 l 1010 871 l 983 871 q 871 833 890 867 l 868 828 l 867 418 l 867 8 l 861 4 l 857 0 l 831 0 q 800 1 803 0 q 522 411 799 3 l 249 818 l 247 474 q 249 122 247 125 q 375 78 267 79 l 390 78 l 390 39 l 390 0 l 378 0 l 288 3 q 133 3 211 4 l 43 0 l 31 0 l 31 39 l 31 78 l 57 78 q 169 115 150 82 l 174 122 l 174 496 l 174 869 l 149 869 q 76 871 135 871 l 31 871 l 31 910 z "},"O":{"ha":1081,"x_min":78,"x_max":1006,"o":"m 503 978 q 815 879 674 993 q 888 807 846 856 q 1000 532 979 693 q 1001 424 1006 486 q 1000 415 1000 419 q 883 135 981 251 q 581 -29 760 -11 q 471 -25 525 -33 q 181 153 294 4 q 85 379 106 253 q 78 472 78 414 q 86 571 78 528 q 146 739 101 663 q 192 807 165 772 q 265 879 235 857 q 503 978 369 965 m 579 907 q 514 908 539 911 q 317 775 388 893 q 301 746 308 761 q 257 567 267 674 q 256 429 251 519 q 257 413 257 418 q 301 217 267 296 q 486 47 363 79 q 499 44 492 46 q 581 44 539 36 q 772 206 707 69 q 778 217 775 211 q 822 413 813 296 q 824 551 828 463 q 822 567 822 561 q 763 775 813 694 q 579 907 696 886 z "},"P":{"ha":946,"x_min":31,"x_max":869,"o":"m 31 910 l 31 949 l 304 949 q 596 944 578 947 q 650 933 621 940 q 839 786 782 894 q 868 682 865 736 q 844 574 869 625 q 664 424 793 467 q 632 414 647 418 q 517 404 597 406 q 458 404 468 404 l 332 404 l 332 247 q 333 88 332 89 q 436 78 339 78 l 475 78 l 475 39 l 475 0 l 460 0 l 349 3 q 157 3 253 4 l 46 0 l 31 0 l 31 39 l 31 78 l 69 78 q 172 88 167 78 l 172 861 q 69 871 167 871 l 31 871 l 31 910 m 554 868 q 449 871 544 869 q 335 867 343 871 q 328 832 329 864 q 328 667 328 806 l 328 475 l 433 475 q 578 483 549 476 q 681 569 661 501 q 689 672 689 594 q 683 771 690 740 q 647 831 674 808 q 554 868 614 858 z "},"Q":{"ha":1081,"x_min":78,"x_max":1011,"o":"m 503 978 q 815 879 674 993 q 888 807 846 856 q 1000 532 979 693 q 1001 424 1006 486 q 1000 415 1000 419 q 883 135 981 251 q 747 22 826 67 q 732 14 733 14 l 751 -22 q 836 -90 788 -81 q 896 -87 864 -96 q 954 -58 931 -79 q 981 -4 976 -37 q 986 11 982 8 q 1006 11 996 21 l 1011 7 l 1010 -18 q 1008 -61 1010 -51 q 885 -262 988 -229 q 876 -265 881 -264 q 842 -268 867 -268 q 806 -265 817 -268 q 717 -186 746 -249 q 679 -58 699 -149 q 669 -12 669 -14 q 647 -17 669 -11 q 471 -25 557 -39 q 181 153 294 4 q 85 379 106 253 q 78 472 78 414 q 86 571 78 528 q 146 739 101 663 q 192 807 165 772 q 265 879 235 857 q 503 978 369 965 m 582 906 q 518 908 550 913 q 438 885 474 904 q 360 829 399 867 q 258 594 279 747 q 256 371 242 482 q 397 86 276 174 q 411 76 410 78 l 411 92 q 447 185 410 144 q 564 219 497 232 q 600 208 583 218 q 683 115 647 183 q 694 96 694 97 q 718 117 694 93 q 824 371 807 206 q 821 594 838 482 q 776 747 810 682 q 593 903 711 875 q 582 906 588 904 m 572 153 q 524 156 544 161 q 478 106 483 144 q 494 56 474 76 q 511 43 503 47 q 533 39 522 39 q 611 50 578 39 q 649 65 640 60 q 640 90 650 67 q 572 153 615 140 z "},"R":{"ha":1022,"x_min":31,"x_max":1017,"o":"m 31 910 l 31 949 l 278 949 q 561 943 538 947 q 575 940 564 942 q 778 840 701 917 q 844 724 831 788 q 844 656 850 692 q 767 535 829 586 q 661 474 721 496 l 646 467 l 657 461 q 774 304 754 401 l 788 228 q 801 144 799 153 q 874 38 821 47 q 889 36 881 36 q 908 39 903 36 q 947 121 943 54 q 958 144 949 142 q 982 146 964 146 q 1017 135 1014 146 q 1017 118 1017 129 q 950 -12 1011 29 q 913 -28 932 -24 q 771 -15 861 -39 q 758 -12 764 -14 q 622 126 646 24 q 618 226 619 138 q 615 324 617 317 q 575 400 603 372 q 513 438 550 428 q 415 442 503 440 l 328 442 l 328 265 q 329 88 328 89 q 432 78 335 78 l 471 78 l 471 39 l 471 0 l 456 0 q 346 3 457 0 q 156 3 250 4 q 46 0 44 0 l 31 0 l 31 39 l 31 78 l 69 78 q 172 88 167 78 l 172 861 q 69 871 167 871 l 31 871 l 31 910 m 507 869 l 347 869 q 331 863 333 868 q 328 683 328 860 l 328 507 l 418 507 q 525 510 515 508 q 633 557 599 522 q 660 600 650 574 q 668 692 669 628 q 665 756 668 742 q 635 822 658 797 q 507 869 593 864 z "},"S":{"ha":772,"x_min":49,"x_max":697,"o":"m 314 978 l 396 976 q 399 976 397 976 q 543 910 485 961 q 557 897 556 899 l 588 936 q 621 978 613 969 q 636 979 622 979 q 651 975 647 979 l 656 971 l 656 807 l 656 642 l 651 638 l 647 633 l 621 633 q 589 640 592 633 q 583 664 588 643 q 535 810 571 753 q 374 904 479 894 q 272 883 314 910 q 201 750 201 838 q 272 618 201 664 q 297 606 285 611 q 400 579 301 604 q 503 553 501 553 q 618 476 571 531 q 675 379 654 436 q 692 315 683 354 q 692 221 697 272 q 654 113 682 161 q 468 -26 592 -3 q 418 -29 454 -29 q 301 -14 357 -29 q 188 44 239 3 l 175 54 l 111 -29 q 96 -31 110 -31 q 81 -26 85 -31 l 76 -22 l 76 140 q 78 308 76 306 q 113 315 81 315 l 138 315 l 142 311 q 146 297 146 307 q 186 157 146 215 q 408 47 254 54 q 481 61 449 46 q 567 183 549 94 q 565 260 572 222 q 474 381 546 350 q 371 408 468 383 q 233 447 260 435 q 156 503 190 468 q 107 574 128 533 q 99 811 49 689 q 125 860 110 836 q 314 978 192 958 z "},"T":{"ha":1003,"x_min":50,"x_max":951,"o":"m 76 932 l 76 940 l 500 940 l 925 940 l 925 932 q 939 767 926 929 q 951 601 949 611 l 951 593 l 917 593 q 882 594 882 593 l 879 628 q 846 793 869 747 q 746 857 821 842 q 646 863 713 863 q 583 854 589 861 l 581 851 l 581 469 l 582 89 l 588 85 q 704 78 600 79 l 782 78 l 782 39 l 782 0 l 764 0 l 624 3 q 379 3 501 4 l 239 0 l 221 0 l 221 39 l 221 78 l 299 78 q 415 85 403 79 l 422 89 l 422 469 l 422 851 l 419 854 q 367 863 414 861 l 357 863 q 257 857 289 863 q 168 811 197 844 q 128 682 140 779 q 119 594 119 632 q 85 593 119 593 l 50 593 l 50 601 q 64 767 51 604 q 76 932 74 922 z "},"U":{"ha":1042,"x_min":31,"x_max":1010,"o":"m 31 910 l 31 949 l 46 949 l 157 946 q 349 946 253 944 l 460 949 l 475 949 l 475 910 l 475 871 l 436 871 q 333 861 339 871 q 333 322 328 853 q 335 247 333 253 q 361 147 343 182 q 521 49 408 58 q 551 47 536 47 q 707 106 644 51 q 769 201 750 143 q 785 264 781 233 l 789 283 l 789 556 l 789 828 l 785 833 q 672 871 765 867 l 646 871 l 646 910 l 646 949 l 658 949 l 750 946 q 906 946 828 944 l 997 949 l 1010 949 l 1010 910 l 1010 871 l 983 871 q 871 833 890 867 l 868 828 l 867 553 q 864 265 865 275 q 765 64 843 146 q 676 1 724 24 q 582 -28 632 -21 q 503 -29 554 -33 q 494 -28 497 -28 q 278 74 367 -11 q 175 283 186 164 q 174 579 174 294 q 172 861 174 860 q 69 871 167 871 l 31 871 l 31 910 z "},"V":{"ha":1042,"x_min":26,"x_max":1014,"o":"m 26 910 l 26 949 l 39 949 q 132 946 38 949 q 311 946 214 944 l 422 949 l 438 949 l 438 910 l 438 871 l 403 871 q 324 860 328 868 l 561 200 l 674 511 q 785 826 785 818 q 776 844 785 835 q 699 871 754 867 l 685 871 l 685 910 l 685 949 l 697 949 l 789 946 q 1004 949 936 943 l 1014 949 l 1014 910 l 1014 871 l 1001 871 q 943 865 976 871 q 872 828 889 854 q 717 403 871 826 q 564 -21 568 -17 q 556 -28 563 -25 q 521 -31 550 -31 q 485 -28 490 -31 q 476 -21 478 -25 q 317 419 474 -18 q 157 860 160 857 q 117 869 151 868 q 60 871 104 871 l 26 871 l 26 910 z "},"W":{"ha":1428,"x_min":25,"x_max":1401,"o":"m 25 910 l 25 949 l 38 949 l 128 946 q 301 946 206 944 l 413 949 l 428 949 l 428 910 l 428 871 l 406 871 q 311 860 314 871 q 356 714 310 858 l 456 399 l 510 228 l 676 754 l 660 807 q 631 867 642 863 q 553 871 618 871 l 521 871 l 521 910 l 521 949 l 533 949 l 624 946 q 797 946 701 944 l 908 949 l 924 949 l 924 910 l 924 871 l 901 871 q 807 860 810 871 l 1006 228 l 1193 824 q 1132 865 1193 851 q 1104 869 1118 868 q 1082 871 1096 871 l 1074 871 l 1074 910 l 1074 949 l 1086 949 q 1182 946 1085 949 q 1325 946 1265 944 l 1393 949 l 1401 949 l 1401 910 l 1401 871 l 1381 871 q 1267 818 1283 867 l 1133 397 q 999 -21 1001 -18 q 961 -31 994 -31 q 922 -21 929 -31 q 817 311 919 -17 l 714 639 l 610 310 q 503 -22 508 -10 q 496 -28 499 -26 q 465 -31 492 -31 q 428 -21 433 -31 q 286 421 425 -18 q 142 864 149 856 q 135 867 140 865 q 57 871 122 871 l 25 871 l 25 910 z "},"X":{"ha":1042,"x_min":32,"x_max":1008,"o":"m 51 910 l 51 949 l 64 949 l 161 946 q 343 946 244 944 l 457 949 l 472 949 l 472 910 l 472 871 l 453 871 q 388 861 408 868 q 381 857 381 860 q 457 733 378 860 q 535 615 531 615 l 600 719 q 665 826 665 819 q 619 864 665 850 q 590 871 606 869 l 578 871 l 578 910 l 578 949 l 592 949 l 694 946 q 856 946 783 944 l 940 949 l 951 949 l 951 910 l 951 871 l 924 871 q 789 846 832 867 q 753 813 769 836 q 668 681 740 794 q 579 539 579 540 l 719 314 q 863 86 857 92 l 875 82 q 969 78 892 78 l 1008 78 l 1008 39 l 1008 0 l 996 0 l 899 3 q 717 3 815 4 l 603 0 l 588 0 l 588 39 l 588 78 l 607 78 q 672 88 651 81 q 679 92 679 89 l 490 396 q 474 374 489 397 q 404 264 457 347 q 318 126 318 129 q 326 103 314 117 q 393 78 349 82 l 404 78 l 404 39 l 404 0 l 390 0 q 289 3 392 0 q 128 3 200 4 l 43 0 l 32 0 l 32 39 l 32 78 l 47 78 q 153 89 106 78 q 218 119 200 101 q 335 299 229 135 l 443 471 l 322 665 q 197 863 203 857 q 89 871 185 871 l 51 871 l 51 910 z "},"Y":{"ha":1042,"x_min":15,"x_max":1025,"o":"m 15 910 l 15 949 l 28 949 l 125 946 q 308 946 210 944 l 424 949 l 439 949 l 439 910 l 439 871 l 408 871 q 343 860 346 868 l 563 482 l 565 478 l 664 649 q 765 822 771 828 q 765 839 767 829 q 704 871 756 867 l 690 871 l 690 910 l 690 949 l 703 949 q 796 946 701 949 q 940 946 874 944 l 1015 949 l 1025 949 l 1025 910 l 1025 871 l 1000 871 q 865 833 903 867 q 726 601 857 825 l 597 379 l 597 235 q 600 88 597 90 q 610 82 601 85 q 703 78 622 78 l 740 78 l 740 39 l 740 0 l 725 0 q 615 3 726 0 q 425 3 521 4 q 315 0 314 0 l 300 0 l 300 39 l 300 78 l 339 78 q 442 88 436 78 q 443 235 443 89 l 443 379 l 304 618 q 163 858 165 856 q 86 871 156 869 q 71 871 79 871 l 15 871 l 15 910 z "},"Z":{"ha":849,"x_min":76,"x_max":778,"o":"m 111 933 l 111 949 l 438 949 l 763 949 l 767 944 l 771 940 l 771 917 l 771 893 l 519 488 l 267 83 l 356 82 q 538 93 490 82 q 638 146 599 107 q 689 243 669 178 q 708 392 701 297 l 708 406 l 743 406 l 778 406 l 778 394 q 767 203 778 392 l 754 11 l 754 0 l 419 0 l 85 1 l 81 4 l 78 8 l 76 33 l 76 60 l 329 465 l 582 871 l 497 871 q 390 869 404 871 q 257 831 306 864 q 210 785 231 815 q 167 628 175 732 q 165 604 165 617 q 131 601 165 601 l 96 601 l 96 617 q 104 775 96 615 q 111 933 110 924 z "},"[":{"ha":386,"x_min":164,"x_max":354,"o":"m 164 347 l 164 1042 l 260 1042 l 354 1042 l 354 1014 l 354 986 l 288 986 l 219 986 l 219 347 l 219 -292 l 288 -292 l 354 -292 l 354 -319 l 354 -347 l 260 -347 l 164 -347 l 164 347 z "},"\\":{"ha":694,"x_min":146,"x_max":647,"o":"m 269 956 q 293 960 283 968 q 308 946 299 956 q 324 921 326 925 q 307 900 324 919 q 214 696 224 815 q 217 685 214 685 q 260 693 236 693 q 290 689 279 693 q 329 664 313 683 q 350 604 350 639 q 329 543 350 568 q 265 513 306 515 q 194 540 222 511 q 151 638 161 574 q 150 714 146 663 q 151 722 151 719 q 225 906 167 828 q 269 956 249 938 m 567 956 q 590 960 581 968 q 606 946 596 956 q 621 921 624 925 q 604 900 621 919 q 511 696 521 815 q 514 685 511 685 q 557 693 533 693 q 588 689 576 693 q 626 664 610 683 q 647 604 647 639 q 626 543 647 568 q 563 513 603 515 q 492 540 519 511 q 449 638 458 574 q 447 714 443 663 q 449 722 449 719 q 522 906 464 828 q 567 956 546 938 z "},"]":{"ha":386,"x_min":31,"x_max":221,"o":"m 31 1014 l 31 1042 l 126 1042 l 221 1042 l 221 347 l 221 -347 l 126 -347 l 31 -347 l 31 -319 l 31 -292 l 99 -292 l 165 -292 l 165 347 l 165 986 l 99 986 l 31 986 l 31 1014 z "},"^":{"ha":694,"x_min":150,"x_max":543,"o":"m 249 872 l 346 964 l 354 957 q 453 865 369 942 l 543 781 l 519 754 l 496 729 q 421 793 494 729 l 347 856 q 272 793 344 856 q 197 729 199 729 l 174 754 l 150 781 l 249 872 z "},"_":{"ha":386,"x_min":101,"x_max":283,"o":"m 172 926 q 257 903 221 938 q 283 839 283 874 q 274 797 283 817 q 192 747 249 750 q 113 794 139 747 q 101 839 101 815 q 111 879 101 860 q 172 926 129 918 z "},"`":{"ha":386,"x_min":79,"x_max":283,"o":"m 203 956 q 228 958 217 968 q 240 946 232 956 q 257 919 261 926 q 239 899 256 918 q 147 696 157 815 q 150 685 147 685 q 193 693 169 693 q 224 689 213 693 q 263 664 246 683 q 283 604 283 639 q 263 543 283 568 q 199 513 239 515 q 128 540 156 511 q 85 638 94 574 q 83 714 79 663 q 85 722 85 719 q 158 906 100 828 q 203 956 182 938 z "},"a":{"ha":694,"x_min":29,"x_max":685,"o":"m 274 621 q 313 621 279 624 q 408 607 367 621 q 514 542 474 585 q 561 458 550 504 q 565 271 564 447 q 568 89 565 100 q 597 71 578 63 q 604 76 600 72 q 614 119 614 86 q 615 149 615 128 l 615 201 l 650 201 l 685 201 l 685 153 q 683 94 685 100 q 619 10 675 40 q 524 -6 565 -17 q 463 46 483 6 q 454 64 457 54 l 453 69 l 440 57 q 382 17 417 33 q 238 -15 315 -18 q 88 49 143 -11 q 56 93 67 69 q 47 204 29 149 q 161 322 72 279 q 308 367 225 354 q 419 379 361 376 l 435 379 l 435 413 q 431 458 433 447 q 413 499 426 476 q 326 556 379 547 q 235 553 294 561 q 222 550 224 550 q 226 543 219 550 q 242 472 249 514 q 182 413 231 425 q 104 433 138 401 q 81 497 79 457 q 92 539 82 518 q 147 592 107 568 q 274 621 196 615 m 435 246 l 435 315 l 426 315 q 368 308 400 315 q 274 281 321 300 q 183 179 197 246 q 200 100 176 136 q 325 54 242 35 q 333 57 329 56 q 421 128 394 74 q 426 140 424 135 q 435 246 435 172 z "},"b":{"ha":772,"x_min":21,"x_max":728,"o":"m 136 956 q 250 964 256 964 l 256 964 l 256 757 l 256 551 l 260 554 q 419 611 325 599 q 464 613 426 613 q 507 610 496 613 q 689 461 626 585 q 721 356 714 408 q 722 250 728 308 q 632 67 703 138 q 560 14 599 33 q 451 -15 503 -14 q 247 61 332 -19 q 235 69 236 71 q 217 35 235 68 l 199 1 l 164 0 l 129 0 l 129 407 q 128 824 129 818 q 93 865 122 857 q 46 871 78 869 l 21 871 l 21 910 l 21 949 l 24 949 l 136 956 m 461 544 q 369 542 415 554 q 268 481 310 526 l 260 471 l 260 306 l 260 140 l 267 131 q 417 51 322 46 q 435 53 425 51 q 522 94 485 58 q 560 157 549 121 q 575 283 574 196 q 557 460 576 406 q 468 542 535 519 q 461 544 465 543 z "},"c":{"ha":617,"x_min":43,"x_max":579,"o":"m 315 621 q 403 619 346 624 q 538 558 496 607 q 557 519 551 542 q 560 472 563 500 q 497 413 549 424 q 414 443 444 401 q 400 472 404 456 q 414 540 393 514 q 418 547 418 544 q 357 551 418 551 q 318 550 325 551 q 254 513 282 540 q 199 372 208 467 q 197 253 193 324 q 199 242 199 246 q 235 135 208 175 q 375 54 283 61 q 472 97 435 53 q 506 163 496 128 q 517 178 510 176 q 542 179 522 179 l 568 179 l 572 175 q 571 147 579 168 q 542 85 564 122 q 336 -15 469 -19 q 214 17 269 -11 q 49 253 76 88 q 47 336 43 286 q 49 343 49 340 q 163 556 65 474 q 315 621 231 610 z "},"d":{"ha":772,"x_min":42,"x_max":750,"o":"m 522 956 q 636 964 642 964 l 642 964 l 642 549 q 643 126 642 131 q 678 83 649 92 q 725 78 693 79 l 750 78 l 750 39 l 750 0 l 522 -15 l 511 -15 l 511 19 l 511 54 l 501 46 q 303 -15 408 -19 q 214 7 257 -14 q 136 63 169 29 q 46 311 42 161 q 79 450 50 388 q 136 532 104 499 q 214 588 171 567 q 276 610 244 603 q 325 613 292 613 q 410 603 371 613 q 501 564 460 590 q 515 556 514 557 l 514 824 q 479 865 508 857 q 432 871 464 869 l 407 871 l 407 910 l 407 949 l 410 949 l 522 956 m 399 546 q 314 542 354 553 q 214 453 240 521 q 196 299 196 406 q 215 138 196 186 q 311 54 239 75 q 347 51 322 51 q 382 53 374 51 q 506 136 458 69 l 511 144 l 511 310 l 511 475 l 503 485 q 399 546 461 533 z "},"e":{"ha":617,"x_min":38,"x_max":579,"o":"m 299 621 q 376 618 325 625 q 501 556 451 606 q 571 411 554 503 q 576 340 576 372 q 571 325 576 331 l 567 321 l 378 321 l 189 321 l 189 297 q 218 142 189 192 q 315 65 250 86 q 381 56 349 56 q 413 58 403 56 q 504 161 479 78 q 513 178 507 172 l 517 182 l 542 182 l 567 182 l 571 178 q 572 149 579 171 q 539 85 560 113 q 483 29 518 53 q 356 -15 429 -11 q 138 71 231 -19 q 72 160 100 107 q 39 315 38 232 q 74 457 40 388 q 267 615 136 583 q 299 621 282 619 m 354 553 q 307 556 336 558 q 207 468 236 540 q 192 390 192 425 l 192 385 l 319 385 l 447 385 l 447 396 q 424 489 443 446 q 354 553 399 538 z "},"f":{"ha":425,"x_min":29,"x_max":533,"o":"m 386 978 q 442 976 424 981 q 524 901 503 964 q 531 869 529 886 q 508 807 533 832 q 453 786 486 786 l 433 788 l 432 788 q 375 860 378 804 q 375 868 375 864 q 388 907 376 888 l 392 914 l 382 914 q 308 878 340 910 q 263 788 272 840 q 260 686 261 779 l 260 599 l 333 599 l 407 599 l 407 560 l 407 521 l 336 521 l 264 521 l 264 306 q 265 88 264 89 q 346 78 269 79 l 399 78 l 399 39 l 399 0 l 386 0 q 288 3 388 0 q 128 3 201 4 q 42 0 43 0 l 29 0 l 29 39 l 29 78 l 58 78 q 136 88 131 78 q 138 306 138 89 l 138 521 l 92 521 l 46 521 l 46 560 l 46 599 l 92 599 l 138 599 l 138 686 q 144 799 139 782 q 149 810 146 801 q 290 953 179 907 q 386 978 336 972 z "},"g":{"ha":694,"x_min":29,"x_max":690,"o":"m 576 628 l 611 628 q 663 586 646 621 q 654 499 690 531 q 619 485 640 486 q 563 519 579 483 q 558 535 560 526 q 563 554 556 550 l 582 556 l 583 556 l 603 557 l 601 560 q 588 563 599 563 q 508 535 547 563 l 503 531 l 513 518 q 544 456 533 490 q 544 353 558 403 q 514 292 533 318 q 469 246 493 263 q 257 199 378 175 q 188 221 221 206 l 172 229 l 168 219 q 164 156 153 190 q 206 113 175 124 q 314 108 213 110 q 465 100 431 107 q 597 42 550 88 q 654 -90 650 -7 q 622 -183 656 -142 q 504 -261 583 -232 q 247 -276 383 -304 q 228 -272 238 -275 q 153 -246 189 -262 q 39 -87 29 -183 q 40 -79 40 -83 q 54 -40 43 -64 q 119 28 75 3 l 129 33 l 119 44 q 90 204 65 114 q 115 256 104 239 q 122 265 121 264 q 117 275 122 267 q 72 353 89 303 q 85 486 54 421 q 124 540 103 519 q 308 614 194 614 q 446 578 385 614 q 456 572 454 572 l 465 581 q 576 628 513 619 m 329 546 q 224 513 258 556 q 217 501 219 507 q 206 404 206 478 q 217 307 206 329 q 288 261 233 268 q 393 294 358 251 q 400 307 397 300 q 413 404 413 332 q 400 501 413 475 q 329 546 382 539 m 403 -8 q 301 -7 392 -7 q 194 -15 211 -7 q 157 -54 171 -28 q 147 -99 147 -74 q 150 -124 147 -117 q 244 -203 168 -174 q 347 -218 290 -218 q 450 -203 403 -218 q 543 -124 522 -176 q 544 -79 550 -103 q 403 -8 522 -17 z "},"h":{"ha":772,"x_min":28,"x_max":760,"o":"m 143 956 q 257 964 263 964 l 263 964 l 263 744 l 263 525 l 278 540 q 358 593 315 575 q 472 614 414 615 q 568 592 529 613 q 596 575 586 582 q 650 457 642 538 q 651 265 651 447 q 653 88 651 89 q 731 78 658 78 l 760 78 l 760 39 l 760 0 l 749 0 l 661 3 q 511 3 585 4 l 426 0 l 414 0 l 414 39 l 414 78 l 443 78 q 521 89 517 78 l 521 276 q 513 489 519 468 q 454 546 500 535 q 392 544 425 551 q 300 478 335 532 q 271 408 279 449 q 267 244 268 396 l 267 89 q 346 78 271 78 l 375 78 l 375 39 l 375 0 l 364 0 l 276 3 q 126 3 201 4 l 39 0 l 28 0 l 28 39 l 28 78 l 57 78 q 135 88 129 78 l 135 824 q 100 865 129 857 q 53 871 85 869 l 28 871 l 28 910 l 28 949 l 31 949 l 143 956 z "},"i":{"ha":386,"x_min":29,"x_max":361,"o":"m 158 926 q 243 903 207 938 q 269 839 269 874 q 260 797 269 817 q 178 747 235 750 q 99 794 125 747 q 88 839 88 815 q 97 879 88 860 q 158 926 115 918 m 149 606 q 260 614 265 614 l 264 614 l 264 351 q 267 86 264 89 q 274 82 271 82 q 335 78 282 78 l 361 78 l 361 39 l 361 0 l 350 0 l 271 3 q 128 3 201 4 q 42 0 43 0 l 29 0 l 29 39 l 29 78 l 58 78 q 136 88 131 78 q 138 279 138 89 q 132 493 138 479 q 115 511 128 506 q 50 521 96 521 l 35 521 l 35 560 l 35 599 l 38 599 l 149 606 z "},"j":{"ha":425,"x_min":-90,"x_max":310,"o":"m 199 926 q 283 903 247 938 q 310 839 310 874 q 300 797 310 817 q 218 747 275 750 q 139 794 165 747 q 128 839 128 815 q 138 879 128 860 q 199 926 156 918 m 185 606 q 304 614 310 614 l 310 614 l 310 263 q 304 -122 310 -101 q 301 -132 306 -118 q 247 -214 286 -178 q 90 -283 186 -275 q 39 -283 60 -286 q -79 -206 -46 -271 q -90 -156 -90 -182 q -42 -82 -90 -101 q -8 -75 -26 -75 q 31 -85 11 -75 q 72 -156 72 -104 q 54 -208 72 -186 q 49 -215 50 -214 l 64 -218 q 139 -197 113 -224 q 179 -119 167 -171 l 182 -101 l 183 181 q 182 474 183 465 q 167 506 179 494 q 93 521 151 519 l 65 521 l 65 560 q 68 599 65 599 l 185 606 z "},"k":{"ha":733,"x_min":21,"x_max":710,"o":"m 136 956 q 250 964 256 964 l 256 964 l 256 653 l 257 342 l 328 407 q 403 481 399 474 q 390 518 418 507 q 382 521 386 519 l 375 521 l 375 560 l 375 599 l 388 599 l 485 596 q 617 596 571 594 l 671 599 l 679 599 l 679 560 l 679 521 l 657 521 q 563 506 604 519 q 508 478 532 496 q 406 383 486 463 q 401 379 403 381 l 579 117 q 649 81 604 86 q 681 78 661 79 l 710 78 l 710 39 l 710 0 l 701 0 l 633 3 q 499 3 575 4 l 411 0 l 399 0 l 399 39 l 399 78 l 406 78 q 439 101 439 78 q 435 117 439 108 l 317 293 l 313 299 l 282 271 l 251 243 l 251 167 q 253 88 251 89 q 331 78 258 78 l 360 78 l 360 39 l 360 0 l 347 0 l 263 3 q 117 3 192 4 l 32 0 l 21 0 l 21 39 l 21 78 l 50 78 q 128 88 122 78 l 128 824 q 93 865 122 857 q 46 871 78 869 l 21 871 l 21 910 l 21 949 l 24 949 l 136 956 z "},"l":{"ha":386,"x_min":29,"x_max":372,"o":"m 144 956 q 258 964 264 964 l 264 964 l 264 526 q 265 88 264 89 q 343 78 271 78 l 372 78 l 372 39 l 372 0 l 360 0 l 274 3 q 126 3 200 4 l 42 0 l 29 0 l 29 39 l 29 78 l 58 78 q 136 88 131 78 l 136 824 q 101 865 131 857 q 54 871 86 869 l 29 871 l 29 910 l 29 949 l 32 949 l 144 956 z "},"m":{"ha":1157,"x_min":28,"x_max":1144,"o":"m 142 606 q 253 614 258 614 l 258 614 l 258 567 l 258 519 l 274 536 q 358 593 317 576 q 472 614 414 615 q 567 593 529 613 q 633 522 613 571 l 639 513 l 642 517 q 688 561 650 532 q 793 608 735 597 q 921 604 858 622 q 981 575 954 597 q 1035 457 1026 538 q 1036 265 1036 447 q 1038 88 1036 89 q 1115 78 1043 78 l 1144 78 l 1144 39 l 1144 0 l 1133 0 l 1046 3 q 896 3 969 4 l 811 0 l 799 0 l 799 39 l 799 78 l 828 78 q 906 89 901 78 l 906 276 q 897 489 904 468 q 839 546 885 535 q 776 544 810 551 q 685 478 719 532 q 656 408 664 449 q 651 244 653 396 l 651 89 q 731 78 656 78 l 760 78 l 760 39 l 760 0 l 749 0 l 661 3 q 511 3 585 4 l 426 0 l 414 0 l 414 39 l 414 78 l 443 78 q 521 89 517 78 l 521 276 q 513 489 519 468 q 454 546 500 535 q 392 544 425 551 q 300 478 335 532 q 271 408 279 449 q 267 244 268 396 l 267 89 q 346 78 271 78 l 375 78 l 375 39 l 375 0 l 364 0 l 276 3 q 126 3 201 4 l 39 0 l 28 0 l 28 39 l 28 78 l 57 78 q 135 88 129 78 l 135 474 q 100 515 129 507 q 53 521 85 519 l 28 521 l 28 560 l 28 599 l 31 599 l 142 606 z "},"n":{"ha":772,"x_min":28,"x_max":760,"o":"m 142 606 q 253 614 258 614 l 258 614 l 258 567 l 258 519 l 274 536 q 408 608 331 594 q 536 604 474 622 q 596 575 569 597 q 650 457 642 538 q 651 265 651 447 q 653 88 651 89 q 731 78 658 78 l 760 78 l 760 39 l 760 0 l 749 0 l 661 3 q 511 3 585 4 l 426 0 l 414 0 l 414 39 l 414 78 l 443 78 q 521 89 517 78 l 521 276 q 513 489 519 468 q 454 546 500 535 q 392 544 425 551 q 300 478 335 532 q 271 408 279 449 q 267 244 268 396 l 267 89 q 346 78 271 78 l 375 78 l 375 39 l 375 0 l 364 0 l 276 3 q 126 3 201 4 l 39 0 l 28 0 l 28 39 l 28 78 l 57 78 q 135 88 129 78 l 135 474 q 100 515 129 507 q 53 521 85 519 l 28 521 l 28 560 l 28 599 l 31 599 l 142 606 z "},"o":{"ha":694,"x_min":39,"x_max":672,"o":"m 313 619 q 539 550 438 635 q 557 533 549 542 q 582 506 578 513 q 650 247 672 390 q 647 233 649 240 q 510 33 622 104 q 419 -6 468 7 q 347 -14 388 -14 q 274 -6 306 -14 q 78 144 143 28 q 39 297 39 215 q 93 479 39 399 q 313 619 174 603 m 369 556 q 239 517 292 567 q 192 390 197 479 q 190 378 190 385 q 192 211 185 307 q 211 133 197 160 q 318 57 240 69 q 372 56 344 51 q 482 133 450 68 q 501 211 496 160 q 503 371 508 275 q 503 378 503 375 q 458 513 497 474 q 454 517 457 514 q 369 556 419 550 z "},"p":{"ha":772,"x_min":21,"x_max":725,"o":"m 136 606 q 250 614 256 614 l 256 614 l 256 582 l 256 550 l 268 558 q 338 592 299 578 q 414 610 374 603 q 508 611 463 617 q 675 488 613 590 q 725 300 725 401 q 629 63 725 158 q 614 49 622 56 q 506 -7 561 7 q 315 14 407 -31 q 264 46 281 31 l 260 49 l 260 -65 q 261 -182 260 -181 q 339 -192 267 -192 l 368 -192 l 368 -231 l 368 -269 l 357 -269 l 269 -267 q 119 -267 194 -265 l 32 -269 l 21 -269 l 21 -231 l 21 -192 l 50 -192 q 128 -182 122 -192 l 128 474 q 93 515 122 507 q 46 521 78 519 l 21 521 l 21 560 l 21 599 l 24 599 l 136 606 m 443 542 q 404 543 426 546 q 332 525 368 539 q 269 479 293 507 l 260 469 l 260 304 l 260 140 l 268 128 q 344 64 297 85 q 475 71 417 31 q 571 244 551 124 q 572 346 578 286 q 489 519 558 465 q 479 526 485 524 q 443 542 463 538 z "},"q":{"ha":733,"x_min":18,"x_max":750,"o":"m 306 613 l 356 613 q 519 532 449 603 q 538 517 536 514 l 557 567 l 576 614 l 608 614 l 642 614 l 642 217 q 643 -182 642 -181 q 721 -192 649 -192 l 750 -192 l 750 -231 l 750 -269 l 739 -269 l 651 -267 q 501 -267 576 -265 l 414 -269 l 403 -269 l 403 -231 l 403 -192 l 432 -192 q 510 -181 508 -192 q 511 -58 511 -179 l 511 60 l 500 51 q 307 -15 414 -18 q 286 -14 296 -15 q 100 110 169 3 q 79 147 89 128 q 65 414 18 279 q 79 449 71 432 q 136 529 107 500 q 211 585 168 564 q 306 613 256 607 m 386 543 q 289 518 335 551 q 218 421 242 485 q 210 196 175 314 q 238 129 219 158 q 329 51 275 64 q 424 68 374 44 q 507 150 471 92 l 515 164 l 515 293 l 515 422 l 510 435 q 394 542 472 522 q 386 543 390 542 z "},"r":{"ha":544,"x_min":21,"x_max":521,"o":"m 133 606 q 244 614 250 614 l 249 614 l 249 581 l 249 547 l 254 554 q 289 589 268 575 q 335 610 304 600 q 392 613 361 617 q 494 553 467 604 q 489 461 521 503 q 467 443 481 450 q 429 435 450 435 q 390 443 407 435 q 351 514 349 464 q 356 538 351 526 q 360 549 360 547 l 350 546 q 257 365 269 529 l 257 88 q 338 78 261 79 l 390 78 l 390 39 l 390 0 l 378 0 q 279 3 379 0 q 119 3 193 4 q 33 0 35 0 l 21 0 l 21 39 l 21 78 l 50 78 q 128 88 122 78 l 128 474 q 93 515 122 507 q 46 521 78 519 l 21 521 l 21 560 q 24 599 21 599 l 133 606 z "},"s":{"ha":547,"x_min":44,"x_max":503,"o":"m 242 621 q 275 622 244 622 q 372 601 331 621 l 389 592 l 411 607 l 432 622 l 444 622 q 461 618 457 622 l 465 614 l 465 525 l 465 436 l 461 432 l 457 428 l 431 428 l 404 428 l 400 432 q 396 450 396 436 q 306 558 389 538 q 229 560 275 564 q 222 558 225 558 q 149 486 153 543 q 188 419 146 444 q 275 393 208 407 q 339 379 333 382 q 474 281 429 357 q 479 271 476 275 q 500 194 499 231 q 460 60 503 113 q 369 -1 429 18 q 207 -7 288 -29 q 142 26 167 6 l 135 31 l 110 11 q 67 -15 74 -15 q 50 -11 54 -15 l 46 -7 l 46 99 q 53 215 46 211 q 82 217 56 217 q 114 210 111 217 q 118 194 115 207 q 303 53 158 32 q 393 118 375 61 q 396 146 396 126 q 393 174 396 165 q 353 224 385 201 q 263 253 331 239 q 151 285 185 267 q 96 324 119 300 q 61 372 75 344 q 46 433 47 401 q 64 519 44 475 q 93 561 76 544 q 224 619 136 608 q 242 621 231 621 z "},"t":{"ha":540,"x_min":25,"x_max":463,"o":"m 189 844 l 189 854 l 224 854 l 258 854 l 258 726 l 258 599 l 349 599 l 439 599 l 439 560 l 439 521 l 349 521 l 258 521 l 258 336 q 260 139 258 147 q 311 57 268 67 q 383 106 361 44 q 393 196 392 129 l 393 251 l 428 251 l 463 251 l 463 196 q 458 128 461 139 q 365 0 439 38 q 274 -14 321 -19 q 138 99 165 -1 q 129 196 129 125 q 128 328 129 179 l 128 521 l 76 521 l 25 521 l 25 553 l 25 586 l 36 586 q 117 625 79 590 q 168 711 147 656 q 189 844 189 776 z "},"u":{"ha":772,"x_min":28,"x_max":760,"o":"m 146 606 l 261 614 l 267 614 l 267 374 q 272 89 267 108 q 286 67 274 75 q 356 50 304 51 q 419 58 396 50 q 489 117 461 74 q 517 183 508 144 q 521 329 519 196 q 514 494 521 482 q 511 500 514 496 q 438 521 497 519 l 413 521 l 413 560 l 413 599 l 640 614 l 651 614 l 651 374 q 653 126 651 131 q 688 83 658 92 q 735 78 703 79 l 760 78 l 760 39 l 760 0 q 642 -7 750 0 q 525 -15 526 -15 l 525 26 l 525 68 l 508 53 q 378 -12 453 0 q 300 -14 353 -18 q 290 -12 294 -12 q 144 100 171 4 q 136 210 138 124 l 136 306 q 131 492 135 483 q 126 499 131 493 q 43 521 113 521 l 28 521 l 28 560 l 28 599 l 31 599 l 146 606 z "},"v":{"ha":733,"x_min":26,"x_max":706,"o":"m 26 560 l 26 599 l 36 599 l 110 596 q 249 596 174 594 q 336 599 335 599 l 347 599 l 347 560 l 347 521 l 324 521 q 269 510 272 518 l 396 167 q 454 319 397 167 q 510 486 511 476 q 507 493 510 488 q 456 521 496 517 l 446 521 l 446 560 l 446 599 l 456 599 l 526 596 q 639 596 589 594 l 697 599 l 706 599 l 706 560 l 706 521 l 697 521 q 644 514 668 521 q 589 479 604 506 q 496 236 585 474 q 406 -6 407 -4 q 367 -15 399 -15 q 326 -6 333 -15 q 231 249 325 -4 q 135 506 136 500 q 88 519 128 518 q 67 521 79 521 l 26 521 l 26 560 z "},"w":{"ha":1003,"x_min":25,"x_max":976,"o":"m 25 560 l 25 599 l 35 599 l 106 596 q 233 596 167 594 l 310 599 l 319 599 l 319 560 l 319 521 l 301 521 q 261 511 265 519 q 315 344 260 508 l 372 182 q 418 318 372 183 l 464 451 l 454 481 q 440 513 443 511 q 392 521 433 519 l 360 521 l 360 560 l 360 599 l 368 599 l 428 596 q 553 596 481 594 q 636 599 635 599 l 647 599 l 647 560 l 647 521 l 624 521 q 567 510 567 518 l 685 165 l 790 472 l 789 482 l 789 483 q 728 521 781 514 q 722 521 725 521 l 710 521 l 710 560 l 710 599 l 721 599 l 797 596 q 913 596 865 594 l 968 599 l 976 599 l 976 560 l 976 521 l 968 521 q 899 507 929 521 q 867 476 876 496 q 782 233 864 474 q 699 -6 700 -4 q 668 -15 693 -14 q 663 -15 667 -15 q 622 -7 629 -15 q 501 343 618 -3 l 442 172 q 379 -6 383 -1 q 339 -15 375 -15 q 303 -6 308 -14 q 213 253 301 -4 q 124 510 126 507 q 63 521 117 519 l 25 521 l 25 560 z "},"x":{"ha":733,"x_min":15,"x_max":718,"o":"m 22 560 l 22 599 l 32 599 l 106 596 q 246 596 169 594 l 333 599 l 344 599 l 344 560 l 344 521 l 329 519 q 306 515 318 519 q 296 508 296 513 q 336 447 296 503 l 376 390 q 407 431 379 390 q 442 492 443 478 q 413 519 438 515 l 404 521 l 404 560 l 404 599 l 414 599 l 493 596 q 685 599 624 593 l 694 599 l 694 560 l 694 521 l 682 521 q 617 515 656 521 q 529 476 556 504 q 471 399 519 467 l 419 329 l 426 318 l 589 89 q 601 83 594 83 q 685 78 614 78 l 718 78 l 718 39 l 718 0 l 708 0 q 494 3 642 6 l 407 0 l 394 0 l 394 39 l 394 78 l 406 78 q 446 90 443 81 q 397 161 446 92 q 346 228 350 228 l 271 125 q 271 97 264 113 q 303 78 279 79 l 306 78 l 306 39 l 306 0 l 294 0 l 215 3 q 90 3 147 4 q 24 0 25 0 l 15 0 l 15 39 l 15 78 l 39 78 q 183 125 149 82 q 246 210 186 129 q 304 290 304 289 l 228 401 q 142 515 151 510 q 128 518 139 517 l 69 521 l 22 521 l 22 560 z "},"y":{"ha":733,"x_min":26,"x_max":706,"o":"m 26 560 l 26 599 l 36 599 l 111 596 q 250 596 175 594 l 336 599 l 349 599 l 349 560 l 349 521 l 324 521 q 271 510 274 518 q 396 181 271 506 l 501 450 q 510 475 510 472 q 499 503 513 489 q 450 521 481 521 l 444 521 l 444 560 l 444 599 l 454 599 l 526 596 q 639 596 589 594 l 697 599 l 706 599 l 706 560 l 706 521 l 688 521 q 586 475 606 517 q 472 182 586 476 l 358 -115 q 260 -249 324 -203 q 124 -281 190 -299 q 60 -242 85 -271 q 28 -154 28 -204 q 36 -115 26 -132 q 64 -87 43 -97 q 122 -81 92 -72 q 157 -100 143 -86 q 175 -129 168 -111 q 174 -179 181 -154 q 151 -212 167 -199 q 146 -218 143 -218 q 174 -218 147 -222 q 254 -164 222 -207 q 301 -69 275 -137 q 307 -56 304 -62 l 329 0 l 232 254 q 132 511 139 497 l 124 517 l 122 517 q 54 521 110 521 l 26 521 l 26 560 m 140 -218 q 138 -215 142 -218 q 129 -211 133 -212 q 121 -207 124 -207 l 140 -218 z "},"z":{"ha":617,"x_min":39,"x_max":557,"o":"m 74 588 l 74 599 l 310 599 l 546 599 l 550 594 q 554 572 554 588 q 553 550 554 551 q 379 308 553 549 l 206 71 l 258 69 q 365 75 336 69 q 457 135 433 88 q 474 188 469 164 q 488 286 481 222 l 488 294 l 522 294 l 557 294 l 557 286 l 544 147 q 533 8 533 10 l 533 0 l 290 0 l 47 1 l 43 4 q 39 29 39 11 q 40 53 39 50 l 382 524 l 389 533 l 321 533 q 238 529 249 532 q 194 517 215 526 q 140 440 154 496 q 128 353 135 421 l 128 340 l 93 340 l 58 340 l 58 351 l 67 469 q 74 588 72 581 z "},"{":{"ha":694,"x_min":0,"x_max":693,"o":"m 0 371 l 0 403 l 347 403 l 693 403 l 693 371 l 693 338 l 347 338 l 0 338 l 0 371 z "},"|":{"ha":1389,"x_min":0,"x_max":1388,"o":"m 0 371 l 0 403 l 694 403 l 1388 403 l 1388 371 l 1388 338 l 694 338 l 0 338 l 0 371 z "},"}":{"ha":694,"x_min":161,"x_max":593,"o":"m 269 974 q 297 974 282 975 q 349 935 335 964 q 343 874 363 903 l 224 706 l 161 738 q 193 836 163 738 q 229 942 229 940 q 269 974 243 967 m 500 974 q 528 974 513 975 q 579 935 565 964 q 574 874 593 903 l 454 706 l 392 738 q 424 836 393 738 q 460 942 460 940 q 500 974 474 967 z "},"~":{"ha":694,"x_min":117,"x_max":579,"o":"m 247 925 q 271 928 254 928 q 350 900 294 926 q 432 872 401 872 q 461 875 451 872 q 510 910 485 885 l 528 928 l 551 908 l 576 888 q 510 804 579 882 q 501 794 504 797 q 454 764 481 774 q 426 760 443 760 q 351 783 399 760 q 344 786 349 785 q 261 814 292 814 q 232 811 242 814 q 183 776 208 801 l 165 758 l 142 778 l 117 799 l 185 883 q 192 892 189 889 q 232 919 213 913 q 247 925 239 922 z "},"":{"ha":386,"x_min":29,"x_max":361,"o":"m 149 606 q 260 614 265 614 l 264 614 l 264 351 q 267 86 264 89 q 274 82 271 82 q 335 78 282 78 l 361 78 l 361 39 l 361 0 l 350 0 l 271 3 q 128 3 201 4 q 42 0 43 0 l 29 0 l 29 39 l 29 78 l 58 78 q 136 88 131 78 q 138 279 138 89 q 132 493 138 479 q 115 511 128 506 q 50 521 96 521 l 35 521 l 35 560 l 35 599 l 38 599 l 149 606 z "},"":{"ha":1254,"x_min":44,"x_max":1214,"o":"m 358 910 l 358 949 l 747 949 l 1138 949 l 1138 943 q 1157 775 1139 939 q 1176 607 1175 611 l 1176 601 l 1142 601 l 1107 601 l 1107 607 q 1103 638 1106 611 q 1058 804 1089 754 q 956 864 1028 851 q 829 871 915 871 q 731 863 738 871 q 728 676 728 860 l 728 494 l 776 494 q 865 500 839 494 q 921 540 906 511 q 936 626 935 569 l 936 657 l 971 657 l 1006 657 l 1006 456 l 1006 254 l 971 254 l 936 254 l 936 285 q 921 371 935 342 q 865 411 906 400 q 776 417 839 417 l 728 417 l 728 253 q 731 86 728 89 q 792 79 736 79 q 831 79 803 79 q 963 86 929 79 q 1079 151 1043 101 q 1106 206 1096 176 q 1138 353 1125 265 q 1144 389 1143 386 l 1144 393 l 1179 393 l 1214 393 l 1214 389 q 1185 197 1213 388 q 1156 4 1157 7 l 1156 0 l 813 0 l 471 0 l 471 39 l 471 78 l 500 78 q 576 88 571 78 q 578 253 578 89 l 578 417 l 476 417 l 376 417 l 328 274 q 278 128 279 129 q 286 107 275 117 q 367 78 308 82 l 382 78 l 382 39 l 382 0 l 369 0 l 278 3 q 132 3 199 4 l 56 0 l 44 0 l 44 39 l 44 78 l 58 78 q 144 90 107 78 q 193 122 181 101 q 322 499 197 129 l 449 871 l 403 871 l 358 871 l 358 910 m 558 867 l 542 868 l 540 868 q 529 865 531 869 l 465 681 q 403 497 406 500 q 490 494 403 494 l 578 494 l 578 678 l 578 860 l 572 863 q 558 867 571 864 z "},"":{"ha":1408,"x_min":93,"x_max":1368,"o":"m 522 978 q 564 978 563 978 q 671 964 604 978 l 732 953 l 751 950 l 1021 949 l 1292 949 l 1292 943 q 1311 775 1293 939 q 1331 607 1329 611 l 1331 601 l 1296 601 l 1261 601 l 1261 607 q 1257 638 1260 611 q 1192 825 1239 786 q 1121 861 1165 847 q 968 871 1079 871 q 857 863 864 871 q 854 696 854 860 l 854 532 l 929 532 q 1044 542 1021 533 q 1100 597 1086 556 q 1110 667 1108 621 l 1110 694 l 1144 694 l 1179 694 l 1179 493 l 1179 292 l 1144 292 l 1110 292 l 1110 319 q 1100 389 1108 365 q 1044 444 1086 431 q 929 454 1021 453 l 854 454 l 854 272 q 857 86 854 89 q 865 81 858 85 q 1035 78 881 75 q 1060 79 1053 79 q 1213 131 1158 85 q 1290 346 1264 176 q 1292 353 1292 349 q 1299 389 1297 386 l 1299 393 l 1333 393 l 1368 393 l 1368 389 q 1339 197 1367 388 q 1310 4 1311 7 l 1310 0 l 1031 0 l 751 -1 l 732 -4 l 671 -15 q 569 -31 606 -29 q 296 58 419 -35 q 100 403 129 183 q 99 415 99 410 q 97 524 93 461 q 99 532 99 528 q 165 739 114 647 q 211 807 185 772 q 285 879 254 857 q 522 978 389 965 m 590 913 q 463 889 518 919 q 335 760 383 847 q 269 492 269 646 q 379 133 269 272 q 403 107 390 119 q 507 42 454 57 q 638 46 574 22 q 701 132 686 64 q 711 213 708 163 q 713 658 715 271 q 711 738 713 726 q 688 858 706 821 q 590 913 665 904 z "},"":{"ha":1042,"x_min":364,"x_max":676,"o":"m 496 993 q 557 992 518 996 q 667 900 642 972 q 667 846 676 872 q 556 754 646 776 q 485 754 525 749 q 374 846 399 774 q 374 900 364 872 q 468 988 394 964 q 496 993 482 992 m 557 932 l 482 932 q 453 921 461 929 q 439 874 439 911 q 464 818 439 828 q 519 813 481 813 q 594 835 583 813 q 601 872 601 846 q 575 928 601 918 q 557 932 568 931 z "},"":{"ha":868,"x_min":31,"x_max":808,"o":"m 31 906 l 31 944 l 400 944 l 769 944 l 769 939 q 789 771 771 935 q 808 603 807 607 l 808 597 l 774 597 l 739 597 l 739 603 q 735 633 738 607 q 690 797 721 746 q 583 860 658 844 q 443 867 546 867 q 335 858 342 867 l 332 856 l 332 472 q 335 88 332 89 q 440 78 343 79 l 510 78 l 510 39 l 510 0 l 493 0 q 365 3 494 0 q 157 3 254 4 l 46 0 l 31 0 l 31 39 l 31 78 l 69 78 q 172 88 167 78 l 172 857 q 69 867 167 867 l 31 867 l 31 906 z "},"":{"ha":1157,"x_min":64,"x_max":1092,"o":"m 542 992 q 578 994 546 994 q 624 985 615 994 l 1086 24 q 1092 10 1092 11 q 1089 3 1092 8 l 1085 0 l 578 0 l 71 0 l 67 3 q 64 10 64 8 l 526 974 q 532 985 532 983 q 542 992 535 989 m 694 475 l 533 810 l 372 475 l 211 142 l 532 140 l 854 140 l 694 475 z "},"":{"ha":1081,"x_min":78,"x_max":1006,"o":"m 503 978 q 815 879 674 993 q 888 807 846 856 q 1000 532 979 693 q 1001 424 1006 486 q 1000 415 1000 419 q 883 135 981 251 q 581 -29 760 -11 q 471 -25 525 -33 q 181 153 294 4 q 85 379 106 253 q 78 472 78 414 q 86 571 78 528 q 146 739 101 663 q 192 807 165 772 q 265 879 235 857 q 503 978 369 965 m 586 910 q 513 913 539 917 q 408 874 456 906 q 253 583 278 790 q 251 372 239 482 q 358 115 268 206 q 567 38 447 24 q 628 53 599 42 q 821 325 783 117 q 828 372 825 349 q 826 583 840 482 q 713 840 806 751 q 643 889 682 869 q 586 910 625 899 m 324 476 l 324 593 l 358 593 l 393 593 l 393 569 l 393 546 l 540 546 l 686 546 l 686 569 l 686 593 l 721 593 l 756 593 l 756 476 l 756 358 l 721 358 l 686 358 l 686 382 l 686 406 l 540 406 l 393 406 l 393 382 l 393 358 l 358 358 l 324 358 l 324 476 z "},"":{"ha":964,"x_min":44,"x_max":918,"o":"m 449 993 q 481 994 451 994 q 522 988 515 994 q 661 536 525 985 q 800 86 797 89 l 808 82 l 810 82 q 888 78 822 78 l 918 78 l 918 39 l 918 0 l 906 0 l 815 3 q 640 3 738 4 q 528 0 526 0 l 513 0 l 513 39 l 513 78 l 547 78 q 629 89 625 81 q 535 406 631 90 q 439 719 439 729 l 349 425 q 260 125 260 136 q 318 82 258 96 q 350 78 333 79 l 365 78 l 365 39 l 365 0 l 353 0 l 263 3 q 124 3 185 4 q 53 0 54 0 l 44 0 l 44 39 l 44 78 l 65 78 q 146 96 114 79 q 174 122 164 104 q 307 557 178 128 q 440 988 439 986 q 449 993 443 990 z "},"":{"ha":926,"x_min":58,"x_max":867,"o":"m 76 940 l 463 940 l 849 940 l 854 817 q 860 693 860 694 l 825 693 l 790 693 l 790 708 q 779 793 786 774 q 767 807 776 803 q 463 813 743 813 q 160 807 182 813 q 146 793 149 803 q 135 708 139 774 l 135 693 l 100 693 l 65 693 l 71 817 q 76 940 76 939 m 193 489 l 193 624 l 228 624 l 263 624 l 263 589 l 263 553 l 463 553 l 663 553 l 663 589 l 663 624 l 697 624 l 732 624 l 732 489 l 732 354 l 697 354 l 663 354 l 663 390 l 663 425 l 463 425 l 263 425 l 263 390 l 263 354 l 228 354 l 193 354 l 193 489 m 58 263 l 93 263 l 128 263 l 128 247 q 144 139 133 151 q 182 131 149 132 l 658 129 q 743 131 733 129 q 781 139 776 132 q 797 247 792 151 l 797 263 l 832 263 l 867 263 l 861 131 q 856 0 856 1 l 463 0 l 69 0 l 64 132 q 58 263 58 261 z "},"":{"ha":1042,"x_min":31,"x_max":1010,"o":"m 31 906 l 31 944 l 521 944 l 1010 944 l 1010 906 l 1010 867 l 971 867 q 868 857 874 867 l 868 88 q 971 78 874 78 l 1010 78 l 1010 39 l 1010 0 l 994 0 l 883 3 q 692 3 788 4 l 581 0 l 565 0 l 565 39 l 565 78 l 604 78 q 707 88 701 78 q 708 478 708 89 l 708 867 l 521 867 l 332 867 l 332 478 q 333 88 332 89 q 436 78 339 78 l 475 78 l 475 39 l 475 0 l 460 0 l 349 3 q 157 3 253 4 l 46 0 l 31 0 l 31 39 l 31 78 l 69 78 q 172 88 167 78 l 172 857 q 69 867 167 867 l 31 867 l 31 906 z "},"":{"ha":1003,"x_min":74,"x_max":925,"o":"m 83 946 q 488 949 88 949 l 886 949 l 886 943 q 906 775 888 939 q 925 607 924 611 l 925 601 l 890 601 l 856 601 l 856 607 q 836 713 847 675 q 739 842 808 810 q 615 868 700 860 q 440 871 611 868 l 283 869 l 572 481 q 572 467 575 474 q 407 278 578 472 l 244 94 l 401 93 q 683 104 624 93 q 806 179 764 121 q 847 303 835 225 q 856 361 856 340 q 890 363 856 363 l 925 363 l 925 357 q 906 182 924 351 q 886 6 888 11 l 886 0 l 488 0 q 79 8 85 0 q 78 22 75 15 q 251 219 74 18 l 424 415 l 251 649 l 78 881 l 76 907 q 83 946 76 942 z "},"":{"ha":1081,"x_min":76,"x_max":1003,"o":"m 244 976 q 343 968 289 986 q 525 729 474 925 q 535 690 531 710 l 540 669 l 543 681 q 625 885 567 804 q 683 942 649 917 q 799 979 732 975 q 889 960 847 982 q 999 806 976 913 q 1003 772 1001 789 q 996 746 1003 750 q 964 744 993 744 q 926 751 931 744 l 925 760 l 925 761 q 865 835 925 811 q 799 846 835 847 q 701 801 742 842 q 665 746 681 779 q 622 558 633 683 q 619 315 622 553 q 622 88 619 90 q 728 78 629 79 l 797 78 l 797 39 l 797 0 l 781 0 l 651 3 q 429 3 540 4 l 300 0 l 283 0 l 283 39 l 283 78 l 353 78 q 458 88 450 79 q 461 297 461 89 q 460 533 461 517 q 281 846 443 838 q 168 801 203 849 q 154 761 154 783 l 153 753 l 153 751 q 115 744 142 744 q 83 746 86 744 q 76 772 76 750 q 132 914 83 857 q 244 976 178 965 z "},"":{"ha":1003,"x_min":78,"x_max":924,"o":"m 249 910 l 249 949 l 265 949 l 392 946 q 611 946 501 944 q 738 949 736 949 l 754 949 l 754 910 l 754 871 l 685 871 q 579 861 588 869 q 576 793 576 860 l 576 725 l 596 724 q 858 611 763 701 q 888 579 875 596 q 921 511 911 547 q 924 475 924 500 q 921 438 924 449 q 888 369 911 401 q 661 238 818 276 q 596 225 629 229 l 576 224 l 576 156 q 579 88 576 89 q 685 78 588 79 l 754 78 l 754 39 l 754 0 l 738 0 l 611 3 q 392 3 501 4 q 265 0 267 0 l 249 0 l 249 39 l 249 78 l 318 78 q 424 88 415 79 q 426 156 426 89 l 426 224 l 407 225 q 144 336 242 247 q 114 369 126 353 q 81 438 90 401 q 78 475 78 449 q 81 511 78 500 q 114 579 90 547 q 339 711 182 671 q 407 724 372 719 l 426 725 l 426 793 q 424 861 426 860 q 318 871 415 869 l 249 871 l 249 910 m 426 475 l 426 660 l 422 660 q 376 651 418 660 q 282 596 311 633 q 254 525 263 571 q 251 475 251 511 q 254 424 251 438 q 282 353 263 378 q 378 297 314 314 q 424 289 408 289 l 426 289 l 426 475 m 594 657 q 579 660 581 660 q 576 475 576 660 q 579 289 576 289 q 624 297 593 289 q 719 353 688 314 q 747 424 739 378 q 750 475 750 438 q 747 525 750 511 q 719 596 739 571 q 594 657 681 643 z "},"":{"ha":1081,"x_min":76,"x_max":1003,"o":"m 288 910 l 288 949 l 304 949 l 431 946 q 650 946 540 944 q 776 949 775 949 l 793 949 l 793 910 l 793 871 l 724 871 q 618 861 626 869 q 615 578 615 860 l 615 296 l 618 297 q 661 315 639 303 q 767 489 747 365 q 774 574 772 521 q 783 668 775 642 q 850 750 800 739 q 926 751 857 751 l 993 751 l 997 747 l 1003 743 l 1003 719 l 1003 694 l 999 690 q 985 686 994 686 q 933 635 947 682 q 924 564 925 607 q 907 451 922 496 q 751 264 867 322 q 619 224 697 236 l 615 224 l 615 157 q 618 88 615 89 q 724 78 626 79 l 793 78 l 793 39 l 793 0 l 776 0 l 650 3 q 431 3 540 4 q 304 0 306 0 l 288 0 l 288 39 l 288 78 l 357 78 q 463 88 454 79 q 465 157 465 89 l 465 224 l 461 224 q 349 254 396 235 q 244 325 289 279 q 172 451 194 375 q 156 564 157 496 q 146 635 154 607 q 94 686 132 682 q 81 690 85 686 q 76 717 76 697 q 85 749 76 746 q 210 751 93 756 q 229 750 225 751 q 296 668 279 739 q 306 574 304 642 q 325 436 307 492 q 425 313 353 350 q 464 296 451 296 q 465 578 465 296 q 463 861 465 860 q 357 871 454 869 l 288 871 l 288 910 z "},"":{"ha":1003,"x_min":61,"x_max":940,"o":"m 468 978 l 561 976 q 810 871 708 958 q 904 738 875 813 q 925 642 924 692 q 871 433 926 546 q 803 318 851 397 q 731 190 756 242 q 704 129 710 146 l 704 125 l 746 125 q 835 133 817 125 q 843 140 838 135 q 864 225 853 158 q 869 253 869 247 l 871 260 l 906 260 l 940 260 l 940 256 l 917 131 q 894 4 896 6 l 894 0 l 763 0 q 621 8 628 0 q 619 36 619 13 q 675 299 622 131 q 686 333 681 315 q 744 575 733 488 q 744 686 750 628 q 669 849 731 790 q 565 906 625 889 q 501 913 535 913 q 436 906 467 913 q 286 786 333 879 q 257 686 265 742 q 257 581 251 642 q 257 575 257 578 q 315 333 268 488 q 368 146 354 213 q 381 32 381 81 l 382 8 l 376 4 l 372 0 l 240 0 l 107 0 l 107 4 q 85 131 106 6 q 61 256 61 254 l 61 260 l 96 260 l 131 260 l 132 253 q 138 225 132 247 q 158 140 149 158 q 167 133 164 135 q 256 125 185 125 l 297 125 l 297 129 q 271 190 292 146 q 199 318 246 242 q 131 433 150 397 q 76 642 75 546 q 97 738 78 692 q 288 932 146 865 q 307 940 297 936 q 447 976 376 969 q 468 978 456 978 z "},"":{"ha":810,"x_min":21,"x_max":921,"o":"m 450 978 l 490 979 l 492 979 q 531 975 521 978 q 601 932 575 964 q 610 922 608 924 l 624 931 q 785 979 693 975 q 817 978 807 979 q 903 896 881 963 q 874 799 921 829 q 850 788 863 792 l 808 788 q 751 860 754 804 q 751 868 751 864 q 764 907 753 888 l 768 914 l 758 914 q 685 878 717 910 q 639 788 649 840 q 636 686 638 779 l 636 599 l 710 599 l 783 599 l 783 560 l 783 521 l 713 521 l 640 521 l 640 306 q 642 88 640 89 q 722 78 646 79 l 775 78 l 775 39 l 775 0 l 763 0 q 664 3 764 0 q 504 3 578 4 q 418 0 419 0 l 406 0 l 406 39 l 406 78 l 435 78 q 513 88 507 78 q 514 306 514 89 l 514 521 l 385 521 l 256 521 l 256 306 q 257 88 256 89 q 335 78 263 78 l 364 78 l 364 39 l 364 0 l 351 0 l 265 3 q 118 3 192 4 l 33 0 l 21 0 l 21 39 l 21 78 l 50 78 q 128 88 122 78 q 129 306 129 89 l 129 521 l 83 521 l 38 521 l 38 560 l 38 599 l 83 599 l 129 599 l 129 679 q 131 772 129 763 q 228 907 146 850 q 450 978 321 967 m 490 910 q 422 913 457 915 q 271 819 317 899 q 256 782 261 801 q 251 685 253 771 l 251 599 l 382 599 l 514 599 l 514 681 q 515 771 514 767 q 511 781 517 778 q 488 807 497 786 q 496 894 465 856 q 500 899 499 896 q 506 906 504 904 q 490 910 506 907 z "},"":{"ha":772,"x_min":21,"x_max":750,"o":"m 463 978 q 494 978 468 981 q 557 965 532 978 q 636 856 621 932 q 638 800 643 824 q 597 750 628 765 q 519 750 558 732 q 479 800 489 765 q 479 843 475 829 q 515 892 489 879 q 522 896 521 894 q 493 908 522 900 q 369 899 436 924 q 264 803 292 871 q 258 789 260 796 q 251 678 251 771 l 251 599 l 329 599 q 407 600 407 599 l 638 615 l 642 615 l 642 353 q 643 88 642 89 q 721 78 649 78 l 750 78 l 750 39 l 750 0 l 738 0 l 651 3 q 504 3 578 4 l 419 0 l 407 0 l 407 39 l 407 78 l 436 78 q 514 88 508 78 q 515 279 515 89 q 510 494 515 481 q 490 514 501 510 q 389 521 474 521 l 360 521 l 256 521 l 256 306 q 257 88 256 89 q 335 78 263 78 l 364 78 l 364 39 l 364 0 l 351 0 l 265 3 q 118 3 192 4 l 33 0 l 21 0 l 21 39 l 21 78 l 50 78 q 128 88 122 78 q 129 306 129 89 l 129 521 l 83 521 l 38 521 l 38 560 l 38 599 l 83 599 l 129 599 l 129 685 l 131 772 l 133 785 q 163 844 144 818 q 215 897 182 872 q 439 976 308 965 q 463 978 449 978 z "},"":{"ha":772,"x_min":21,"x_max":750,"o":"m 458 978 q 569 963 528 982 l 581 957 l 607 960 q 638 964 635 963 l 642 964 l 642 528 q 643 88 642 89 q 721 78 649 78 l 750 78 l 750 39 l 750 0 l 738 0 l 651 3 q 504 3 578 4 l 419 0 l 407 0 l 407 39 l 407 78 l 436 78 q 514 88 508 78 q 515 306 515 89 l 515 521 l 386 521 l 256 521 l 256 306 q 257 88 256 89 q 335 78 263 78 l 364 78 l 364 39 l 364 0 l 351 0 l 265 3 q 118 3 192 4 l 33 0 l 21 0 l 21 39 l 21 78 l 50 78 q 128 88 122 78 q 129 306 129 89 l 129 521 l 83 521 l 38 521 l 38 560 l 38 599 l 83 599 l 129 599 l 129 679 q 131 772 129 763 q 185 871 140 825 q 431 975 274 960 q 458 978 450 978 m 492 913 q 428 913 429 913 q 299 854 349 904 q 256 782 267 822 q 251 685 253 771 l 251 599 l 383 599 l 515 599 l 515 697 l 515 797 l 508 801 q 481 864 481 825 q 489 901 481 883 q 492 913 494 911 z "},"":{"ha":1157,"x_min":21,"x_max":1135,"o":"m 458 978 l 515 978 q 563 960 544 972 q 613 910 590 943 q 628 915 614 906 q 771 968 693 953 q 915 975 864 988 q 1015 876 989 956 q 1021 856 1018 865 q 1022 800 1028 824 q 982 750 1013 765 q 904 750 943 732 q 864 800 874 765 q 864 843 860 829 q 900 892 874 879 q 907 896 906 894 q 874 910 907 899 q 836 913 861 913 q 769 904 797 913 q 650 806 683 879 q 639 768 642 788 q 638 678 638 761 l 638 599 l 714 599 q 792 600 792 599 l 1022 615 l 1026 615 l 1026 353 q 1028 88 1026 89 q 1106 78 1033 78 l 1135 78 l 1135 39 l 1135 0 l 1122 0 l 1038 3 q 890 3 964 4 q 804 0 806 0 l 792 0 l 792 39 l 792 78 l 821 78 q 899 88 893 78 q 900 279 900 89 q 894 494 900 481 q 875 514 886 510 q 775 521 858 521 l 746 521 l 642 521 l 642 306 q 643 88 642 89 q 721 78 649 78 l 750 78 l 750 39 l 750 0 l 738 0 l 651 3 q 504 3 578 4 l 419 0 l 407 0 l 407 39 l 407 78 l 436 78 q 514 88 508 78 q 515 306 515 89 l 515 521 l 386 521 l 256 521 l 256 306 q 257 88 256 89 q 335 78 263 78 l 364 78 l 364 39 l 364 0 l 351 0 l 265 3 q 118 3 192 4 l 33 0 l 21 0 l 21 39 l 21 78 l 50 78 q 128 88 122 78 q 129 306 129 89 l 129 521 l 83 521 l 38 521 l 38 560 l 38 599 l 83 599 l 129 599 l 129 679 q 131 772 129 763 q 185 871 140 825 q 431 975 274 960 q 458 978 450 978 m 474 913 q 353 893 417 921 q 299 854 322 878 q 256 782 267 822 q 251 685 253 771 l 251 599 l 383 599 l 515 599 l 515 674 l 515 750 l 506 756 q 475 832 468 781 q 476 843 475 838 q 511 892 483 878 q 518 896 517 894 q 474 913 518 904 z "},"":{"ha":1157,"x_min":21,"x_max":1135,"o":"m 458 978 q 519 978 500 981 q 581 951 551 971 q 613 918 597 939 l 618 910 l 622 913 q 785 971 699 957 q 863 979 819 978 q 951 963 914 981 l 965 957 l 992 960 q 1022 964 1019 963 l 1026 964 l 1026 528 q 1028 88 1026 89 q 1106 78 1033 78 l 1135 78 l 1135 39 l 1135 0 l 1122 0 l 1038 3 q 890 3 964 4 q 804 0 806 0 l 792 0 l 792 39 l 792 78 l 821 78 q 899 88 893 78 q 900 306 900 89 l 900 521 l 771 521 l 642 521 l 642 306 q 643 88 642 89 q 721 78 649 78 l 750 78 l 750 39 l 750 0 l 738 0 l 651 3 q 504 3 578 4 l 419 0 l 407 0 l 407 39 l 407 78 l 436 78 q 514 88 508 78 q 515 306 515 89 l 515 521 l 386 521 l 256 521 l 256 306 q 257 88 256 89 q 335 78 263 78 l 364 78 l 364 39 l 364 0 l 351 0 l 265 3 q 118 3 192 4 l 33 0 l 21 0 l 21 39 l 21 78 l 50 78 q 128 88 122 78 q 129 306 129 89 l 129 521 l 83 521 l 38 521 l 38 560 l 38 599 l 83 599 l 129 599 l 129 679 q 131 772 129 763 q 185 871 140 825 q 431 975 274 960 q 458 978 450 978 m 488 911 q 428 913 450 915 q 299 854 349 904 q 256 782 267 822 q 251 685 253 771 l 251 599 l 383 599 l 515 599 l 515 681 l 517 769 q 514 779 518 776 q 481 844 481 804 q 500 899 481 876 l 507 906 l 504 907 q 488 911 501 908 m 876 913 l 808 913 l 785 908 q 654 814 694 889 q 642 782 646 799 q 638 685 639 771 l 638 599 l 768 599 l 900 599 l 900 697 l 900 797 l 893 801 q 865 864 865 825 q 874 901 865 883 q 876 913 879 911 z "},"":{"ha":425,"x_min":-90,"x_max":310,"o":"m 185 606 q 304 614 310 614 l 310 614 l 310 263 q 304 -122 310 -101 q 301 -132 306 -118 q 247 -214 286 -178 q 90 -283 186 -275 q 39 -283 60 -286 q -79 -206 -46 -271 q -90 -156 -90 -182 q -42 -82 -90 -101 q -8 -75 -26 -75 q 31 -85 11 -75 q 72 -156 72 -104 q 54 -208 72 -186 q 49 -215 50 -214 l 64 -218 q 139 -197 113 -224 q 179 -119 167 -171 l 182 -101 l 183 181 q 182 474 183 465 q 167 506 179 494 q 93 521 151 519 l 65 521 l 65 560 q 68 599 65 599 l 185 606 z "},"":{"ha":694,"x_min":140,"x_max":414,"o":"m 200 969 q 236 968 219 975 q 276 931 250 964 q 338 849 286 917 l 414 744 l 363 697 l 163 864 q 147 894 150 876 q 176 958 140 932 q 200 969 188 967 z "},"":{"ha":694,"x_min":279,"x_max":558,"o":"m 463 969 q 531 946 503 981 q 539 932 536 939 q 531 864 558 893 l 333 700 l 331 699 q 296 729 328 697 l 279 744 l 356 847 q 438 957 432 951 q 463 969 450 967 z "},"":{"ha":694,"x_min":156,"x_max":538,"o":"m 175 874 l 192 901 l 196 899 q 272 857 224 885 q 346 817 344 818 l 419 857 q 497 899 474 886 l 501 901 l 518 874 q 538 844 536 844 l 351 713 q 346 710 347 710 l 156 844 q 175 874 157 844 z "},"":{"ha":694,"x_min":121,"x_max":572,"o":"m 121 956 l 121 964 l 153 964 l 186 964 l 186 951 q 269 815 193 861 q 310 799 288 804 q 347 796 321 796 q 383 799 372 796 q 496 901 465 822 q 507 951 506 925 l 507 964 l 540 964 l 572 964 l 572 956 q 557 874 572 917 q 428 724 522 765 q 414 718 421 721 q 347 708 386 708 q 279 718 307 708 q 140 858 182 753 q 122 935 126 894 q 121 956 121 943 z "},"":{"ha":694,"x_min":96,"x_max":597,"o":"m 96 781 l 96 819 l 347 819 l 597 819 l 597 781 l 597 742 l 347 742 l 96 742 l 96 781 z "},"":{"ha":617,"x_min":165,"x_max":526,"o":"m 281 -64 l 281 -31 l 346 -31 l 411 -31 l 411 -39 l 411 -49 l 424 -51 q 496 -93 467 -67 q 515 -119 507 -103 q 526 -165 526 -142 q 403 -283 526 -257 q 213 -299 340 -299 l 165 -299 l 165 -267 l 165 -235 l 171 -235 q 210 -233 174 -233 q 392 -187 365 -233 q 396 -165 396 -178 q 392 -144 396 -156 q 338 -106 378 -117 q 289 -99 306 -99 l 281 -99 l 281 -64 z "},"":{"ha":694,"x_min":21,"x_max":658,"o":"m 339 978 q 400 978 369 981 q 557 907 497 967 q 613 811 599 865 q 615 772 615 799 q 613 732 615 744 q 553 619 597 664 q 485 568 514 581 q 479 564 481 565 l 489 557 q 568 489 532 532 q 644 326 625 418 q 653 214 658 268 q 553 32 640 97 q 544 26 549 29 q 407 -15 479 -18 q 333 18 365 -14 q 296 101 300 51 q 304 142 296 128 q 364 176 321 176 q 422 142 406 176 q 422 76 440 110 q 403 53 413 56 l 403 51 q 446 58 417 44 q 507 146 490 79 q 511 317 524 211 q 510 326 510 322 q 421 507 494 451 q 353 533 390 529 q 336 538 340 533 l 332 542 l 332 564 q 339 597 332 594 l 347 599 l 349 599 q 367 601 356 599 q 467 689 439 611 q 476 772 476 717 q 468 846 476 821 q 417 904 453 886 q 376 914 397 913 q 306 894 340 915 q 258 817 271 871 q 256 403 257 807 l 256 0 l 251 0 l 219 3 q 118 3 193 4 l 33 0 l 21 0 l 21 39 l 21 78 l 50 78 q 128 88 122 78 q 129 306 129 89 l 129 521 l 75 521 l 21 521 l 21 560 l 21 599 l 75 599 l 129 599 l 129 699 q 132 808 131 800 q 204 922 150 881 q 339 978 263 969 z "},"":{"ha":1003,"x_min":35,"x_max":965,"o":"m 265 621 q 358 619 308 624 q 475 575 424 608 q 513 546 493 564 l 524 535 l 536 546 q 761 619 632 638 q 803 610 782 617 q 910 532 871 588 q 929 500 914 526 q 961 353 961 433 l 963 329 l 957 325 l 953 321 l 760 321 l 567 321 l 567 292 q 649 94 571 154 q 704 65 678 74 q 783 54 751 53 q 882 138 849 58 q 890 158 888 147 q 899 178 893 172 l 903 182 l 928 182 l 953 182 l 957 178 q 958 149 965 171 q 903 56 939 94 q 833 6 868 21 q 782 -11 814 -4 q 739 -14 769 -14 q 665 -6 701 -14 q 528 75 589 14 l 518 86 l 501 69 q 317 -10 439 7 q 200 -11 249 -21 q 96 40 139 1 q 46 175 35 97 q 53 203 49 190 q 256 342 90 301 q 392 363 325 358 l 426 365 l 436 365 l 436 406 q 426 476 435 451 q 360 546 406 525 q 308 557 338 556 q 222 550 233 557 q 226 543 219 550 q 242 472 249 514 q 185 414 232 426 q 144 413 165 408 q 82 472 96 421 q 83 519 79 499 q 106 558 92 544 q 265 621 147 610 m 747 553 q 697 556 724 561 q 585 456 617 538 q 572 403 579 440 q 571 389 571 397 l 569 385 l 703 385 l 835 385 l 833 392 q 783 529 824 492 q 747 553 768 544 m 436 285 l 436 300 l 428 300 q 333 286 389 300 q 239 246 271 269 q 188 136 176 200 q 261 54 200 74 q 292 51 269 51 q 350 60 326 51 q 447 149 425 85 q 450 158 449 154 q 451 185 451 164 q 447 221 451 204 q 436 285 438 258 z "},"":{"ha":1081,"x_min":36,"x_max":1044,"o":"m 319 621 l 388 619 q 567 517 496 600 q 576 506 575 507 l 583 514 q 715 608 635 582 q 921 592 824 644 q 975 549 953 575 q 1039 353 1039 476 l 1040 329 l 1035 325 l 1031 321 l 836 321 l 643 321 l 643 293 q 651 221 644 249 q 733 90 668 133 q 854 54 785 54 q 957 133 922 54 q 967 158 963 144 q 976 178 972 174 l 981 182 l 1006 182 q 1035 178 1031 182 q 1032 140 1044 172 q 1031 135 1032 138 q 976 51 1014 92 q 825 -15 911 -11 q 622 58 711 -19 q 589 93 603 75 l 579 106 l 576 103 q 543 67 563 86 q 388 -12 479 4 q 296 -11 340 -18 q 115 93 188 8 q 42 263 54 165 q 40 344 36 296 q 42 351 42 349 q 72 450 50 404 q 138 539 100 503 q 275 614 196 594 q 304 619 283 615 q 319 621 310 621 m 368 556 q 326 556 344 558 q 203 468 239 546 q 196 450 199 460 q 181 328 182 410 q 201 149 179 204 q 313 53 235 71 q 374 53 339 47 q 496 167 464 72 q 510 231 503 188 q 511 364 515 275 q 510 381 510 375 q 454 513 500 468 q 368 556 419 547 m 817 554 q 713 526 765 568 q 703 518 707 522 q 647 390 658 476 l 646 385 l 779 385 l 913 385 l 911 392 q 817 554 897 533 z "},"":{"ha":694,"x_min":8,"x_max":674,"o":"m 517 671 q 561 749 560 749 l 589 733 q 617 715 617 718 q 572 636 614 713 l 529 560 l 538 551 q 582 506 561 533 q 650 244 674 389 q 601 121 639 178 q 403 -10 531 15 q 388 -12 394 -11 q 313 -14 358 -18 q 306 -12 308 -12 q 238 6 267 -7 q 222 11 224 11 l 178 -68 l 133 -149 l 76 -118 l 121 -37 l 167 43 l 153 54 q 67 168 97 100 q 68 433 8 297 q 74 444 71 439 q 136 533 99 496 q 367 622 233 631 q 458 600 414 618 l 474 593 l 517 671 m 383 554 q 322 556 344 558 q 194 468 233 543 q 178 418 182 444 q 169 315 171 385 q 193 138 168 192 q 206 115 204 114 l 439 532 q 383 554 442 539 m 497 471 l 490 483 q 485 476 490 485 q 374 279 472 457 l 257 72 q 288 58 257 68 q 347 51 314 51 q 435 71 400 51 q 500 138 478 93 q 524 301 525 186 q 524 315 524 308 q 515 418 522 385 q 497 471 507 451 z "},"":{"ha":1081,"x_min":74,"x_max":1006,"o":"m 794 976 l 828 1035 l 839 1028 l 868 1011 q 886 997 888 1000 q 851 938 886 994 q 818 878 818 879 l 829 867 q 946 715 901 803 q 1000 532 988 635 q 1001 424 1006 486 q 1000 415 1000 419 q 883 135 981 251 q 581 -29 760 -11 q 471 -25 525 -33 q 331 24 390 -11 q 318 28 318 31 l 251 -86 l 222 -68 q 193 -50 194 -51 q 228 11 193 -46 l 261 69 l 254 75 q 79 415 103 206 q 78 524 74 461 q 79 532 79 528 q 106 647 88 597 q 228 846 144 761 q 329 924 276 894 q 663 961 490 1013 q 744 926 706 947 q 760 918 758 918 q 794 976 761 918 m 568 913 q 360 850 453 925 q 313 801 329 826 q 242 603 254 724 q 235 494 236 558 q 265 233 233 324 q 300 163 276 201 q 310 153 308 151 q 514 499 311 154 q 718 846 717 844 q 710 857 721 850 q 699 865 700 864 q 568 913 642 904 m 783 778 q 772 794 776 788 l 769 797 l 764 786 l 558 438 l 358 99 l 361 96 q 413 64 382 78 q 661 61 536 4 q 667 64 664 63 q 800 201 754 107 q 844 494 846 299 q 838 603 843 558 q 783 778 828 703 z "},"":{"ha":386,"x_min":17,"x_max":382,"o":"m 190 504 q 365 544 365 546 l 374 507 q 382 471 382 472 l 36 389 l 19 465 q 190 504 17 465 z "},"":{"ha":694,"x_min":125,"x_max":568,"o":"m 190 926 q 279 897 243 940 q 299 843 299 874 q 251 765 299 789 q 192 758 222 750 q 129 818 143 771 q 125 843 125 831 q 171 918 125 893 q 190 926 181 924 m 460 926 q 549 897 513 940 q 568 843 568 874 q 521 765 568 789 q 461 758 492 750 q 399 818 413 771 q 394 843 394 831 q 440 918 394 893 q 460 926 450 924 z "}}}
